<svg xmlns="http://www.w3.org/2000/svg" width="3212" height="1492" viewBox="0 0 3212 1492" fill="none"><mask id="mask0_3170_68" style="mask-type:alpha" maskUnits="userSpaceOnUse" x="0" y="0" width="3212" height="1492"><rect width="3212" height="1492" fill="#D9D9D9"></rect></mask><g mask="url(#mask0_3170_68)"><rect width="3212" height="1492" fill="#0B163E"></rect><path d="M173.992 1506L331.812 1414.89C341.378 1409.36 341.378 1400.41 331.812 1394.89L275.095 1362.14C265.529 1356.62 265.529 1347.67 275.095 1342.14L415.593 1261.03C425.159 1255.51 425.159 1246.56 415.593 1241.03L287.434 1167.05C277.868 1161.52 262.359 1161.52 252.793 1167.05L134.159 1235.54C127.463 1239.4 116.606 1239.4 109.91 1235.54L49.2958 1200.54C39.7298 1195.02 39.7298 1186.07 49.2958 1180.54L279.421 1047.69C288.987 1042.17 304.496 1042.17 314.062 1047.69L628.835 1229.41C635.532 1233.28 646.388 1233.28 653.085 1229.41L779.296 1156.55C788.862 1151.03 788.862 1142.07 779.296 1136.55L620.828 1045.07C611.262 1039.54 611.262 1030.59 620.828 1025.07L880.994 874.872C890.41 869.435 905.624 869.338 915.247 874.652L1128.18 992.245C1134.94 995.979 1145.64 995.894 1152.22 992.055L1440.25 824.064C1449.77 818.508 1449.68 809.544 1440.04 804.052L1381.25 770.545C1371.58 765.034 1371.53 756.03 1381.14 750.482L1584.02 633.359C1593.61 627.82 1609.18 627.839 1618.73 633.401L1896.53 795.13C1903.16 798.989 1913.94 799.042 1920.68 795.247L2427.5 509.901C2437.36 504.347 2453.22 504.581 2462.58 510.42L2602.89 597.948C2609.5 602.071 2620.72 602.196 2627.6 598.224L2781.34 509.472C2790.7 504.065 2790.93 495.34 2781.85 489.775L2703.2 441.583C2694.08 435.994 2694.35 427.223 2703.82 421.826L2804.17 364.588C2813.87 359.054 2829.54 359.161 2839.01 364.828L2923.93 415.629C2930.68 419.671 2941.9 419.661 2948.64 415.608L2990.45 390.449C2996.88 386.581 2996.81 380.461 2990.29 376.644L2855.04 297.473C2845.6 291.95 2845.63 283.07 2855.11 277.57L2964.73 213.948C2974.04 208.543 2989.1 208.373 2998.77 213.564L3054.73 243.597C3061.6 247.281 3072.31 247.101 3078.79 243.192L3290.5 115.5" stroke="#00E2A2" stroke-width="8"></path><path d="M1301.03 -698.515L1446.94 -614.279C1461.29 -605.995 1461.29 -592.564 1446.94 -584.28L1352.12 -529.542C1337.78 -521.258 1337.78 -507.827 1352.12 -499.543L1533.97 -394.562C1548.32 -386.278 1571.58 -386.278 1585.93 -394.562L1846.15 -544.786C1860.5 -553.07 1883.76 -553.07 1898.11 -544.786L2237.56 -348.819C2251.91 -340.535 2251.91 -327.104 2237.56 -318.821L1977.35 -168.596C1963 -160.312 1963 -146.882 1977.35 -138.598L2113.3 -60.1125C2127.65 -51.8286 2150.91 -51.8286 2165.26 -60.1125L2224.14 -94.1045C2238.49 -102.388 2261.75 -102.388 2276.1 -94.1044L2341.48 -56.363C2355.83 -48.0792 2355.83 -34.6485 2341.48 -26.3647L2147.94 85.3656C2133.59 93.6494 2133.59 107.08 2147.94 115.364L2297.31 201.598C2311.66 209.882 2311.66 223.313 2297.31 231.596L2060.48 368.323C2046.13 376.607 2022.87 376.607 2008.52 368.323L1859.14 282.089C1844.79 273.805 1821.53 273.805 1807.18 282.089L1570.35 418.815C1556 427.099 1532.73 427.099 1518.38 418.815L1367.71 331.831C1353.36 323.547 1353.36 310.117 1367.71 301.833L1610.61 161.607C1624.96 153.323 1624.96 139.892 1610.61 131.609L1435.69 30.6267C1421.34 22.3429 1421.34 8.91218 1435.69 0.628361L1485.48 -28.1144C1499.83 -36.3982 1499.83 -49.829 1485.48 -58.1128L1453.01 -76.8571C1438.66 -85.1409 1415.4 -85.1409 1401.05 -76.8571L1091.9 101.613C1077.56 109.897 1054.29 109.897 1039.94 101.613L851.598 -7.11902" stroke="#112960" stroke-width="2"></path><path d="M1109.03 2302.56L1254.94 2218.32C1269.29 2210.04 1269.29 2196.61 1254.94 2188.33L1160.13 2133.59C1145.78 2125.3 1145.78 2111.87 1160.13 2103.59L1341.97 1998.61C1356.32 1990.32 1379.59 1990.32 1393.93 1998.61L1654.15 2148.83C1668.5 2157.12 1691.76 2157.12 1706.11 2148.83L2045.56 1952.86C2059.91 1944.58 2059.91 1931.15 2045.56 1922.87L1785.35 1772.64C1771 1764.36 1771 1750.93 1785.35 1742.64L1921.3 1664.16C1935.65 1655.87 1958.91 1655.87 1973.26 1664.16L2032.14 1698.15C2046.49 1706.43 2069.75 1706.43 2084.1 1698.15L2149.48 1660.41C2163.83 1652.13 2163.83 1638.69 2149.48 1630.41L1955.94 1518.68C1941.59 1510.4 1941.59 1496.97 1955.94 1488.68L2105.31 1402.45C2119.66 1394.16 2119.66 1380.73 2105.31 1372.45L1868.48 1235.72C1854.13 1227.44 1830.87 1227.44 1816.52 1235.72L1667.14 1321.96C1652.8 1330.24 1629.53 1330.24 1615.18 1321.96L1378.35 1185.23C1364 1176.95 1340.73 1176.95 1326.39 1185.23L1175.71 1272.21C1161.36 1280.5 1161.36 1293.93 1175.71 1302.21L1418.61 1442.44C1432.96 1450.72 1432.96 1464.15 1418.61 1472.44L1243.69 1573.42C1229.34 1581.7 1229.34 1595.13 1243.69 1603.42L1293.48 1632.16C1307.83 1640.44 1307.83 1653.87 1293.48 1662.16L1261.01 1680.9C1246.66 1689.19 1223.4 1689.19 1209.05 1680.9L899.906 1502.43C885.557 1494.15 862.292 1494.15 847.943 1502.43L659.6 1611.16" stroke="#112960" stroke-width="2"></path><path d="M3124.1 2138.56L2978.19 2054.32C2963.84 2046.04 2963.84 2032.61 2978.19 2024.33L3073.01 1969.59C3087.35 1961.3 3087.35 1947.87 3073.01 1939.59L2891.16 1834.61C2876.81 1826.32 2853.55 1826.32 2839.2 1834.61L2578.98 1984.83C2564.63 1993.12 2541.37 1993.12 2527.02 1984.83L2187.57 1788.86C2173.22 1780.58 2173.22 1767.15 2187.57 1758.87L2447.78 1608.64C2462.13 1600.36 2462.13 1586.93 2447.78 1578.64L2311.83 1500.16C2297.48 1491.87 2274.22 1491.87 2259.87 1500.16L2200.99 1534.15C2186.64 1542.43 2163.38 1542.43 2149.03 1534.15L2083.65 1496.41C2069.3 1488.13 2069.3 1474.69 2083.65 1466.41L2277.19 1354.68C2291.54 1346.4 2291.54 1332.97 2277.19 1324.68L2127.82 1238.45C2113.47 1230.16 2113.47 1216.73 2127.82 1208.45L2364.65 1071.72C2379 1063.44 2402.26 1063.44 2416.61 1071.72L2565.99 1157.96C2580.34 1166.24 2603.6 1166.24 2617.95 1157.96L2854.78 1021.23C2869.13 1012.95 2892.4 1012.95 2906.75 1021.23L3057.42 1108.21C3071.77 1116.5 3071.77 1129.93 3057.42 1138.21L2814.52 1278.44C2800.17 1286.72 2800.17 1300.15 2814.52 1308.44L2989.44 1409.42C3003.79 1417.7 3003.79 1431.13 2989.44 1439.42L2939.65 1468.16C2925.3 1476.44 2925.3 1489.87 2939.65 1498.16L2972.12 1516.9C2986.47 1525.19 3009.73 1525.19 3024.08 1516.9L3333.23 1338.43C3347.57 1330.15 3370.84 1330.15 3385.19 1338.43L3573.53 1447.16" stroke="#052D8B" stroke-width="4"></path><path d="M302.032 2369.56L447.943 2285.32C462.292 2277.04 462.292 2263.61 447.943 2255.33L353.126 2200.59C338.777 2192.3 338.777 2178.87 353.126 2170.59L534.972 2065.61C549.321 2057.32 572.585 2057.32 586.934 2065.61L847.15 2215.83C861.499 2224.12 884.763 2224.12 899.112 2215.83L1238.56 2019.86C1252.91 2011.58 1252.91 1998.15 1238.56 1989.87L978.348 1839.64C963.998 1831.36 963.998 1817.93 978.348 1809.64L1114.3 1731.16C1128.65 1722.87 1151.91 1722.87 1166.26 1731.16L1225.14 1765.15C1239.49 1773.43 1262.75 1773.43 1277.1 1765.15L1342.48 1727.41C1356.83 1719.13 1356.83 1705.69 1342.48 1697.41L1148.94 1585.68C1134.59 1577.4 1134.59 1563.97 1148.94 1555.68L1298.31 1469.45C1312.66 1461.16 1312.66 1447.73 1298.31 1439.45L1061.48 1302.72C1047.13 1294.44 1023.87 1294.44 1009.52 1302.72L860.144 1388.96C845.795 1397.24 822.531 1397.24 808.182 1388.96L571.347 1252.23C556.998 1243.95 533.734 1243.95 519.385 1252.23L368.713 1339.21C354.364 1347.5 354.364 1360.93 368.713 1369.21L611.609 1509.44C625.958 1517.72 625.958 1531.15 611.609 1539.44L436.691 1640.42C422.342 1648.7 422.342 1662.13 436.691 1670.42L486.478 1699.16C500.827 1707.44 500.827 1720.87 486.478 1729.16L454.01 1747.9C439.661 1756.19 416.396 1756.19 402.047 1747.9L92.9051 1569.43C78.5561 1561.15 55.2917 1561.15 40.9426 1569.43L-147.401 1678.16" stroke="#112960" stroke-width="2"></path><path d="M-1283.4 1402.88L-1095.06 1511.61C-1080.71 1519.9 -1057.45 1519.9 -1043.1 1511.61L-733.956 1333.14C-719.607 1324.86 -696.342 1324.86 -681.993 1333.14L-649.525 1351.89C-635.176 1360.17 -635.176 1373.6 -649.525 1381.89L-699.312 1410.63C-713.661 1418.91 -713.661 1432.34 -699.312 1440.63L-524.394 1541.61C-510.045 1549.89 -510.045 1563.32 -524.394 1571.61L-767.29 1711.83C-781.639 1720.12 -781.639 1733.55 -767.29 1741.83L-616.618 1828.82C-602.269 1837.1 -579.005 1837.1 -564.656 1828.82L-327.821 1692.09C-313.472 1683.81 -290.208 1683.81 -275.859 1692.09L-126.486 1778.32C-112.137 1786.61 -88.8724 1786.61 -74.5234 1778.32L162.311 1641.6C176.66 1633.31 176.66 1619.88 162.311 1611.6L12.9384 1525.36C-1.41064 1517.08 -1.41063 1503.65 12.9384 1495.37L206.475 1383.64C220.824 1375.35 220.824 1361.92 206.475 1353.64L141.1 1315.9C126.751 1307.61 103.487 1307.61 89.1377 1315.9L30.2575 1349.89C15.9085 1358.17 -7.35592 1358.17 -21.705 1349.89L-183.637 1256.4" stroke="#112960" stroke-width="2"></path><path d="M218.036 -578.997L373.473 -489.262C387.822 -480.978 387.822 -467.548 373.473 -459.264L91.6082 -296.541C77.2592 -288.257 77.2592 -274.827 91.6082 -266.543L586.065 18.9112C600.414 27.195 623.679 27.195 638.028 18.9112L681.754 -6.33212C696.103 -14.6159 719.367 -14.6159 733.716 -6.33211L884.388 80.6519C898.737 88.9357 898.737 102.366 884.388 110.65L532.814 313.617C518.465 321.901 495.201 321.901 480.851 313.617L414.392 275.249C400.642 267.311 400.642 254.441 414.392 246.503V246.503C428.142 238.565 428.142 225.696 414.392 217.758L305.5 154.894C291.151 146.61 267.886 146.61 253.537 154.894L-16.2037 310.617C-30.5528 318.901 -53.8171 318.901 -68.1662 310.617L-188.962 240.881C-203.311 232.597 -203.311 219.166 -188.962 210.882L-129.216 176.39C-114.867 168.107 -114.867 154.676 -129.216 146.392L-228.796 88.9035C-243.145 80.6197 -266.41 80.6197 -280.759 88.9036L-411.947 164.639C-426.296 172.923 -449.56 172.923 -463.909 164.639L-501.143 143.144" stroke="#052D8B" stroke-width="4"></path><path d="M3014.8 -156.966L2724.16 10.8275C2709.81 19.1113 2709.81 32.542 2724.16 40.8259L2904.07 144.692C2918.42 152.976 2918.42 166.406 2904.07 174.69L2649.68 321.554C2635.33 329.838 2612.06 329.838 2597.71 321.554L2236.56 113.053C2222.21 104.769 2222.21 91.3388 2236.56 83.0549L2341.99 22.1865C2356.34 13.9027 2379.6 13.9027 2393.95 22.1865L2435.55 46.1999C2449.9 54.4837 2473.16 54.4837 2487.51 46.1999L2526.54 23.6692C2540.89 15.3854 2540.89 1.95468 2526.54 -6.32914L2308.83 -132.012C2294.48 -140.295 2271.22 -140.295 2256.87 -132.012L2217.84 -109.481C2203.49 -101.197 2180.23 -101.197 2165.88 -109.481L2114.38 -139.213C2100.03 -147.497 2100.03 -160.928 2114.38 -169.212L2211.38 -225.208C2225.72 -233.492 2248.99 -233.492 2263.34 -225.208L2443.55 -121.17C2457.13 -113.332 2479.14 -113.332 2492.72 -121.17V-121.17C2506.29 -129.008 2506.29 -141.715 2492.72 -149.552L2392.12 -207.628C2377.77 -215.912 2377.77 -229.343 2392.12 -237.626L2411.26 -248.68" stroke="#112960" stroke-width="2"></path><path d="M4021.02 1286.95L3673.34 1487.67C3658.99 1495.95 3658.99 1509.38 3673.34 1517.67L3895.02 1645.65C3909.37 1653.93 3909.37 1667.36 3895.02 1675.64L3585.45 1854.36C3571.1 1862.65 3547.83 1862.65 3533.49 1854.36L3097.91 1602.91C3083.56 1594.62 3083.56 1581.19 3097.91 1572.91L3231.7 1495.67C3246.05 1487.39 3269.31 1487.39 3283.66 1495.67L3342.11 1529.41C3356.46 1537.7 3379.72 1537.7 3394.07 1529.41L3449.49 1497.42C3463.84 1489.14 3463.84 1475.71 3449.49 1467.42L3183.21 1313.7C3168.86 1305.42 3145.6 1305.42 3131.25 1313.7L3075.83 1345.69C3061.48 1353.98 3038.22 1353.98 3023.87 1345.69L2953.73 1305.2C2939.38 1296.92 2939.38 1283.49 2953.73 1275.2L3077.56 1203.72C3091.91 1195.43 3115.17 1195.43 3129.52 1203.72L3349.9 1330.94C3364.25 1339.23 3387.52 1339.23 3401.86 1330.94L3407.92 1327.45C3422.27 1319.16 3422.27 1305.73 3407.92 1297.45L3281.5 1224.46C3267.15 1216.18 3267.15 1202.75 3281.5 1194.46L3308.77 1178.72" stroke="#112960" stroke-width="2"></path><path d="M3948.02 525.953L3600.34 726.671C3585.99 734.955 3585.99 748.385 3600.34 756.669L3822.02 884.647C3836.37 892.931 3836.37 906.362 3822.02 914.645L3512.45 1093.37C3498.1 1101.65 3474.83 1101.65 3460.49 1093.37L3024.91 841.906C3010.56 833.623 3010.56 820.192 3024.91 811.908L3158.7 734.673C3173.05 726.389 3196.31 726.389 3210.66 734.673L3269.11 768.415C3283.46 776.698 3306.72 776.698 3321.07 768.415L3376.49 736.422C3390.84 728.138 3390.84 714.708 3376.49 706.424L3110.21 552.7C3095.86 544.416 3072.6 544.416 3058.25 552.7L3002.83 584.692C2988.48 592.976 2965.22 592.976 2950.87 584.692L2880.73 544.201C2866.38 535.917 2866.38 522.487 2880.73 514.203L3004.56 442.717C3018.91 434.433 3042.17 434.433 3056.52 442.717L3276.9 569.945C3291.25 578.228 3314.52 578.228 3328.86 569.945L3334.92 566.448C3349.27 558.164 3349.27 544.733 3334.92 536.45L3208.5 463.463C3194.15 455.18 3194.15 441.749 3208.5 433.465L3235.77 417.719" stroke="#112960" stroke-width="2"></path><path d="M2979.56 1728.86L2688.69 1560.94C2674.34 1552.66 2674.34 1539.23 2688.69 1530.94L2868.77 1426.98C2883.12 1418.7 2883.12 1405.27 2868.77 1396.99L2614.16 1250C2599.81 1241.71 2576.55 1241.71 2562.2 1250L2200.75 1458.67C2186.4 1466.95 2186.4 1480.38 2200.75 1488.66L2306.3 1549.6C2320.64 1557.88 2343.91 1557.88 2358.26 1549.6L2399.92 1525.54C2414.27 1517.26 2437.53 1517.26 2451.88 1525.54L2490.97 1548.11C2505.32 1556.4 2505.32 1569.83 2490.97 1578.11L2273.08 1703.9C2258.73 1712.19 2235.47 1712.19 2221.12 1703.9L2182.03 1681.33C2167.68 1673.05 2144.41 1673.05 2130.06 1681.33L2078.49 1711.11C2064.14 1719.39 2064.14 1732.82 2078.49 1741.11L2175.59 1797.16C2189.94 1805.45 2213.2 1805.45 2227.55 1797.16L2407.91 1693.04C2421.5 1685.2 2443.52 1685.2 2457.11 1693.04V1693.04C2470.69 1700.88 2470.69 1713.6 2457.11 1721.44L2356.42 1779.57C2342.07 1787.85 2342.07 1801.29 2356.42 1809.57L2375.6 1820.64" stroke="#112960" stroke-width="2"></path><path d="M-667.356 688.953L-319.676 889.671C-305.327 897.955 -305.327 911.385 -319.676 919.669L-541.357 1047.65C-555.706 1055.93 -555.706 1069.36 -541.357 1077.65L-231.781 1256.37C-217.432 1264.65 -194.168 1264.65 -179.819 1256.37L255.753 1004.91C270.102 996.623 270.102 983.192 255.753 974.908L121.967 897.673C107.618 889.389 84.354 889.389 70.005 897.673L11.5578 931.415C-2.79124 939.698 -26.0556 939.698 -40.4047 931.415L-95.821 899.422C-110.17 891.138 -110.17 877.708 -95.821 869.424L170.456 715.7C184.805 707.416 208.07 707.416 222.419 715.7L277.835 747.692C292.184 755.976 315.448 755.976 329.797 747.692L399.935 707.201C414.284 698.917 414.284 685.487 399.935 677.203L276.108 605.717C261.759 597.433 238.495 597.433 224.146 605.717L3.76418 732.945C-10.5849 741.228 -33.8493 741.228 -48.1983 732.945L-54.255 729.448C-68.6041 721.164 -68.6041 707.733 -54.255 699.45L72.6124 626.208C86.7875 618.025 86.9843 604.792 73.0547 596.47L-31.499 534" stroke="#112960" stroke-width="2"></path><path d="M-502.355 70.4122L-154.676 -130.306C-140.327 -138.59 -140.327 -152.021 -154.676 -160.304L-376.356 -288.282C-390.705 -296.566 -390.705 -309.997 -376.356 -318.281L-66.781 -497.001C-52.4319 -505.285 -29.1675 -505.285 -14.8185 -497.001L420.754 -245.542C435.103 -237.258 435.103 -223.827 420.754 -215.543L286.968 -138.308C272.619 -130.024 249.355 -130.024 235.005 -138.308L176.558 -172.05C162.209 -180.334 138.945 -180.334 124.596 -172.05L69.1795 -140.058C54.8304 -131.774 54.8304 -118.343 69.1795 -110.059L335.457 43.6647C349.806 51.9486 373.07 51.9486 387.419 43.6647L442.835 11.6725C457.185 3.38865 480.449 3.38865 494.798 11.6725L564.936 52.1635C579.285 60.4473 579.285 73.878 564.936 82.1618L441.109 153.648C426.76 161.932 403.495 161.932 389.146 153.648L168.765 26.4202C154.416 18.1364 131.151 18.1364 116.802 26.4202L110.724 29.9294C96.3832 38.2083 96.3735 51.6293 110.702 59.9152L180.162 100.082C194.705 108.492 194.446 122.157 179.588 130.38L-111.499 291.5" stroke="#112960" stroke-width="2"></path><path d="M3212.22 1106.67L3208.28 1105L3204.27 1106.74C3201.09 1108.11 3201.09 1111.44 3204.27 1112.81C3206.69 1113.87 3209.72 1113.87 3212.14 1112.81H3212.22C3215.39 1111.44 3215.39 1108.03 3212.22 1106.67Z" fill="#F4FFFF"></path><path d="M3155.08 1073.62L3151.14 1071.95L3147.13 1073.69C3143.95 1075.06 3143.95 1078.39 3147.13 1079.76C3149.55 1080.82 3152.58 1080.82 3155 1079.76H3155.08C3158.26 1078.39 3158.26 1074.98 3155.08 1073.62Z" fill="#F4FFFF"></path><path d="M3184.6 1089.76L3180.66 1088.1L3176.65 1089.84C3173.47 1091.2 3173.47 1094.54 3176.65 1095.9C3179.07 1096.96 3182.1 1096.96 3184.52 1095.9H3184.6C3187.78 1094.54 3187.78 1091.13 3184.6 1089.76Z" fill="#F4FFFF"></path><path d="M3100.91 1042.81L3096.97 1041.15L3092.96 1042.89C3089.78 1044.25 3089.78 1047.59 3092.96 1048.95C3095.38 1050.02 3098.41 1050.02 3100.83 1048.95H3100.91C3104.09 1047.59 3104.09 1044.18 3100.91 1042.81Z" fill="#F4FFFF"></path><path d="M3130.43 1058.96L3126.49 1057.29L3122.48 1059.03C3119.3 1060.4 3119.3 1063.73 3122.48 1065.1C3124.9 1066.16 3127.93 1066.16 3130.35 1065.1H3130.43C3133.61 1063.73 3133.61 1060.32 3130.43 1058.96Z" fill="#F4FFFF"></path><path d="M3043.77 1009.77L3039.83 1008.1L3035.82 1009.84C3032.64 1011.21 3032.64 1014.54 3035.82 1015.91C3038.24 1016.97 3041.27 1016.97 3043.69 1015.91H3043.77C3046.95 1014.54 3046.95 1011.13 3043.77 1009.77Z" fill="#F4FFFF"></path><path d="M3073.29 1025.91L3069.35 1024.24L3065.34 1025.99C3062.16 1027.35 3062.16 1030.69 3065.34 1032.05C3067.76 1033.11 3070.79 1033.11 3073.21 1032.05H3073.29C3076.47 1030.69 3076.47 1027.28 3073.29 1025.91Z" fill="#F4FFFF"></path><path d="M2986.78 978.569L2982.84 976.901L2978.83 978.645C2975.65 980.009 2975.65 983.344 2978.83 984.709C2981.25 985.77 2984.28 985.77 2986.7 984.709H2986.78C2989.96 983.344 2989.96 979.933 2986.78 978.569Z" fill="#F4FFFF"></path><path d="M3016.3 994.714L3012.36 993.047L3008.35 994.79C3005.17 996.155 3005.17 999.49 3008.35 1000.85C3010.77 1001.92 3013.8 1001.92 3016.22 1000.85H3016.3C3019.48 999.49 3019.48 996.079 3016.3 994.714Z" fill="#F4FFFF"></path><path d="M2929.64 945.52L2925.7 943.853L2921.69 945.596C2918.51 946.96 2918.51 950.296 2921.69 951.66C2924.11 952.721 2927.14 952.721 2929.56 951.66H2929.64C2932.82 950.296 2932.82 946.885 2929.64 945.52Z" fill="#F4FFFF"></path><path d="M2959.16 961.666L2955.22 959.998L2951.21 961.741C2948.03 963.106 2948.03 966.441 2951.21 967.805C2953.63 968.867 2956.66 968.867 2959.08 967.805H2959.16C2962.34 966.441 2962.34 963.03 2959.16 961.666Z" fill="#F4FFFF"></path><path d="M2875.47 914.716L2871.54 913.049L2867.52 914.792C2864.35 916.157 2864.35 919.492 2867.52 920.856C2869.95 921.917 2872.97 921.917 2875.4 920.856H2875.47C2878.65 919.492 2878.65 916.081 2875.47 914.716Z" fill="#F4FFFF"></path><path d="M2904.99 930.861L2901.06 929.193L2897.04 930.937C2893.87 932.301 2893.87 935.636 2897.04 937.001C2899.47 938.062 2902.49 938.062 2904.92 937.001H2904.99C2908.17 935.636 2908.17 932.225 2904.99 930.861Z" fill="#F4FFFF"></path><path d="M2818.33 881.668L2814.4 880L2810.38 881.743C2807.21 883.108 2807.21 886.443 2810.38 887.807C2812.81 888.869 2815.83 888.869 2818.26 887.807H2818.33C2821.51 886.443 2821.51 883.032 2818.33 881.668Z" fill="#F4FFFF"></path><path d="M2847.85 897.812L2843.92 896.145L2839.9 897.888C2836.73 899.252 2836.73 902.587 2839.9 903.952C2842.33 905.013 2845.35 905.013 2847.78 903.952H2847.85C2851.03 902.587 2851.03 899.177 2847.85 897.812Z" fill="#F4FFFF"></path><path d="M2760.22 847.667L2756.28 845.999L2752.27 847.742C2749.09 849.107 2749.09 852.442 2752.27 853.806C2754.69 854.868 2757.72 854.868 2760.14 853.806H2760.22C2763.39 852.442 2763.39 849.031 2760.22 847.667Z" fill="#F4FFFF"></path><path d="M2789.73 863.812L2785.8 862.145L2781.79 863.888C2778.61 865.252 2778.61 868.587 2781.79 869.952C2784.21 871.013 2787.24 871.013 2789.66 869.952H2789.73C2792.91 868.587 2792.91 865.177 2789.73 863.812Z" fill="#F4FFFF"></path><path d="M2703.08 814.619L2699.14 812.951L2695.13 814.695C2691.95 816.059 2691.95 819.394 2695.13 820.759C2697.55 821.82 2700.58 821.82 2703 820.759H2703.08C2706.26 819.394 2706.26 815.983 2703.08 814.619Z" fill="#F4FFFF"></path><path d="M2732.6 830.763L2728.66 829.096L2724.65 830.839C2721.47 832.203 2721.47 835.539 2724.65 836.903C2727.07 837.964 2730.1 837.964 2732.52 836.903H2732.6C2735.78 835.539 2735.78 832.128 2732.6 830.763Z" fill="#F4FFFF"></path><path d="M2648.91 783.814L2644.97 782.146L2640.96 783.89C2637.78 785.254 2637.78 788.589 2640.96 789.954C2643.38 791.015 2646.41 791.015 2648.83 789.954H2648.91C2652.09 788.589 2652.09 785.178 2648.91 783.814Z" fill="#F4FFFF"></path><path d="M2678.43 799.959L2674.49 798.291L2670.48 800.034C2667.3 801.399 2667.3 804.734 2670.48 806.098C2672.9 807.16 2675.93 807.16 2678.35 806.098H2678.43C2681.61 804.734 2681.61 801.323 2678.43 799.959Z" fill="#F4FFFF"></path><path d="M2591.77 750.765L2587.83 749.098L2583.82 750.841C2580.64 752.205 2580.64 755.541 2583.82 756.905C2586.24 757.966 2589.27 757.966 2591.69 756.905H2591.77C2594.95 755.541 2594.95 752.13 2591.77 750.765Z" fill="#F4FFFF"></path><path d="M2621.29 766.911L2617.35 765.243L2613.34 766.987C2610.16 768.351 2610.16 771.686 2613.34 773.051C2615.76 774.112 2618.79 774.112 2621.21 773.051H2621.29C2624.47 771.686 2624.47 768.275 2621.29 766.911Z" fill="#F4FFFF"></path><path d="M2534.78 719.569L2530.84 717.901L2526.83 719.645C2523.65 721.009 2523.65 724.344 2526.83 725.709C2529.25 726.77 2532.28 726.77 2534.7 725.709H2534.78C2537.96 724.344 2537.96 720.933 2534.78 719.569Z" fill="#F4FFFF"></path><path d="M2564.3 735.714L2560.36 734.047L2556.35 735.79C2553.17 737.155 2553.17 740.49 2556.35 741.854C2558.77 742.915 2561.8 742.915 2564.22 741.854H2564.3C2567.48 740.49 2567.48 737.079 2564.3 735.714Z" fill="#F4FFFF"></path><path d="M2477.64 686.52L2473.7 684.853L2469.69 686.596C2466.51 687.96 2466.51 691.296 2469.69 692.66C2472.11 693.721 2475.14 693.721 2477.56 692.66H2477.64C2480.82 691.296 2480.82 687.885 2477.64 686.52Z" fill="#F4FFFF"></path><path d="M2507.16 702.665L2503.22 700.998L2499.21 702.741C2496.03 704.105 2496.03 707.441 2499.21 708.805C2501.63 709.866 2504.66 709.866 2507.08 708.805H2507.16C2510.34 707.441 2510.34 704.03 2507.16 702.665Z" fill="#F4FFFF"></path><path d="M2423.47 655.716L2419.54 654.048L2415.52 655.792C2412.35 657.156 2412.35 660.491 2415.52 661.856C2417.95 662.917 2420.97 662.917 2423.4 661.856H2423.47C2426.65 660.491 2426.65 657.08 2423.47 655.716Z" fill="#F4FFFF"></path><path d="M2452.99 671.861L2449.06 670.193L2445.04 671.937C2441.87 673.301 2441.87 676.636 2445.04 678.001C2447.47 679.062 2450.49 679.062 2452.92 678.001H2452.99C2456.17 676.636 2456.17 673.225 2452.99 671.861Z" fill="#F4FFFF"></path><path d="M2366.33 622.668L2362.4 621L2358.38 622.743C2355.21 624.108 2355.21 627.443 2358.38 628.807C2360.81 629.869 2363.83 629.869 2366.26 628.807H2366.33C2369.51 627.443 2369.51 624.032 2366.33 622.668Z" fill="#F4FFFF"></path><path d="M2395.85 638.813L2391.92 637.145L2387.9 638.888C2384.73 640.253 2384.73 643.588 2387.9 644.952C2390.33 646.014 2393.35 646.014 2395.78 644.952H2395.85C2399.03 643.588 2399.03 640.177 2395.85 638.813Z" fill="#F4FFFF"></path><path d="M796.227 847.98L792.291 846.312L788.28 848.056C785.1 849.42 785.1 852.755 788.28 854.12C790.702 855.181 793.729 855.181 796.151 854.12H796.227C799.406 852.755 799.406 849.344 796.227 847.98Z" fill="#F4FFFF"></path><path d="M825.747 864.126L821.811 862.458L817.799 864.201C814.62 865.566 814.62 868.901 817.799 870.265C820.221 871.327 823.249 871.327 825.671 870.265H825.747C828.926 868.901 828.926 865.49 825.747 864.126Z" fill="#F4FFFF"></path><path d="M739.088 814.931L735.152 813.264L731.141 815.007C727.962 816.371 727.962 819.707 731.141 821.071C733.563 822.132 736.591 822.132 739.013 821.071H739.088C742.267 819.707 742.267 816.296 739.088 814.931Z" fill="#F4FFFF"></path><path d="M768.608 831.077L764.672 829.409L760.66 831.153C757.481 832.517 757.481 835.852 760.66 837.217C763.082 838.278 766.11 838.278 768.532 837.217H768.608C771.787 835.852 771.787 832.441 768.608 831.077Z" fill="#F4FFFF"></path><path d="M684.921 784.128L680.985 782.46L676.973 784.203C673.794 785.568 673.794 788.903 676.973 790.267C679.395 791.329 682.423 791.329 684.845 790.267H684.921C688.1 788.903 688.1 785.492 684.921 784.128Z" fill="#F4FFFF"></path><path d="M714.44 800.273L710.504 798.605L706.493 800.349C703.314 801.713 703.314 805.048 706.493 806.413C708.915 807.474 711.943 807.474 714.365 806.413H714.44C717.619 805.048 717.619 801.637 714.44 800.273Z" fill="#F4FFFF"></path><path d="M627.782 751.08L623.846 749.412L619.835 751.155C616.656 752.52 616.656 755.855 619.835 757.219C622.257 758.281 625.284 758.281 627.707 757.219H627.782C630.961 755.855 630.961 752.444 627.782 751.08Z" fill="#F4FFFF"></path><path d="M657.301 767.224L653.365 765.557L649.354 767.3C646.175 768.664 646.175 772 649.354 773.364C651.776 774.425 654.803 774.425 657.226 773.364H657.301C660.48 772 660.48 768.589 657.301 767.224Z" fill="#F4FFFF"></path><path d="M570.79 719.882L566.854 718.215L562.842 719.958C559.663 721.323 559.663 724.658 562.842 726.022C565.264 727.083 568.292 727.083 570.714 726.022H570.79C573.969 724.658 573.969 721.247 570.79 719.882Z" fill="#F4FFFF"></path><path d="M600.309 736.027L596.373 734.359L592.362 736.103C589.182 737.467 589.182 740.802 592.362 742.167C594.784 743.228 597.811 743.228 600.233 742.167H600.309C603.488 740.802 603.488 737.391 600.309 736.027Z" fill="#F4FFFF"></path><path d="M513.651 686.834L509.715 685.166L505.703 686.909C502.524 688.274 502.524 691.609 505.703 692.973C508.125 694.035 511.153 694.035 513.575 692.973H513.651C516.83 691.609 516.83 688.198 513.651 686.834Z" fill="#F4FFFF"></path><path d="M543.17 702.979L539.234 701.311L535.223 703.054C532.044 704.419 532.044 707.754 535.223 709.118C537.645 710.18 540.673 710.18 543.095 709.118H543.17C546.349 707.754 546.349 704.343 543.17 702.979Z" fill="#F4FFFF"></path><path d="M459.483 656.029L455.547 654.362L451.536 656.105C448.357 657.47 448.357 660.805 451.536 662.169C453.958 663.23 456.986 663.23 459.408 662.169H459.483C462.662 660.805 462.662 657.394 459.483 656.029Z" fill="#F4FFFF"></path><path d="M489.003 672.174L485.067 670.507L481.055 672.25C477.876 673.615 477.876 676.95 481.055 678.314C483.477 679.375 486.505 679.375 488.927 678.314H489.003C492.182 676.95 492.182 673.539 489.003 672.174Z" fill="#F4FFFF"></path><path d="M402.345 622.981L398.409 621.313L394.397 623.057C391.218 624.421 391.218 627.756 394.397 629.121C396.819 630.182 399.847 630.182 402.269 629.121H402.345C405.524 627.756 405.524 624.345 402.345 622.981Z" fill="#F4FFFF"></path><path d="M431.864 639.126L427.928 637.458L423.917 639.202C420.738 640.566 420.738 643.901 423.917 645.266C426.339 646.327 429.366 646.327 431.789 645.266H431.864C435.043 643.901 435.043 640.49 431.864 639.126Z" fill="#F4FFFF"></path><path d="M344.228 588.98L340.292 587.312L336.28 589.056C333.101 590.42 333.101 593.755 336.28 595.12C338.702 596.181 341.73 596.181 344.152 595.12H344.228C347.407 593.755 347.407 590.344 344.228 588.98Z" fill="#F4FFFF"></path><path d="M373.747 605.126L369.811 603.458L365.8 605.201C362.62 606.566 362.62 609.901 365.8 611.265C368.222 612.327 371.249 612.327 373.671 611.265H373.747C376.926 609.901 376.926 606.49 373.747 605.126Z" fill="#F4FFFF"></path><path d="M287.089 555.932L283.153 554.264L279.141 556.008C275.962 557.372 275.962 560.707 279.141 562.072C281.563 563.133 284.591 563.133 287.013 562.072H287.089C290.268 560.707 290.268 557.296 287.089 555.932Z" fill="#F4FFFF"></path><path d="M316.608 572.077L312.672 570.409L308.66 572.153C305.481 573.517 305.481 576.852 308.66 578.217C311.082 579.278 314.11 579.278 316.532 578.217H316.608C319.787 576.852 319.787 573.441 316.608 572.077Z" fill="#F4FFFF"></path><path d="M232.921 525.128L228.985 523.46L224.974 525.203C221.795 526.568 221.795 529.903 224.974 531.267C227.396 532.329 230.424 532.329 232.846 531.267H232.921C236.1 529.903 236.1 526.492 232.921 525.128Z" fill="#F4FFFF"></path><path d="M262.441 541.273L258.505 539.605L254.493 541.348C251.314 542.713 251.314 546.048 254.493 547.412C256.915 548.474 259.943 548.474 262.365 547.412H262.441C265.62 546.048 265.62 542.637 262.441 541.273Z" fill="#F4FFFF"></path><path d="M175.783 492.079L171.847 490.412L167.835 492.155C164.656 493.519 164.656 496.855 167.835 498.219C170.257 499.28 173.285 499.28 175.707 498.219H175.783C178.962 496.855 178.962 493.444 175.783 492.079Z" fill="#F4FFFF"></path><path d="M205.302 508.224L201.366 506.557L197.355 508.3C194.176 509.664 194.176 513 197.355 514.364C199.777 515.425 202.804 515.425 205.227 514.364H205.302C208.481 513 208.481 509.589 205.302 508.224Z" fill="#F4FFFF"></path><path d="M118.79 460.882L114.854 459.215L110.842 460.958C107.663 462.323 107.663 465.658 110.842 467.022C113.265 468.083 116.292 468.083 118.714 467.022H118.79C121.969 465.658 121.969 462.247 118.79 460.882Z" fill="#F4FFFF"></path><path d="M148.31 477.027L144.374 475.36L140.362 477.103C137.183 478.468 137.183 481.803 140.362 483.167C142.784 484.228 145.812 484.228 148.234 483.167H148.31C151.489 481.803 151.489 478.392 148.31 477.027Z" fill="#F4FFFF"></path><path d="M61.6514 427.834L57.7154 426.166L53.7038 427.909C50.5248 429.274 50.5248 432.609 53.7038 433.973C56.1259 435.035 59.1536 435.035 61.5757 433.973H61.6514C64.8304 432.609 64.8304 429.198 61.6514 427.834Z" fill="#F4FFFF"></path><path d="M91.1709 443.979L87.235 442.311L83.2233 444.054C80.0443 445.419 80.0443 448.754 83.2233 450.118C85.6455 451.18 88.6731 451.18 91.0952 450.118H91.1709C94.3499 448.754 94.3499 445.343 91.1709 443.979Z" fill="#F4FFFF"></path><path d="M7.4839 397.029L3.54796 395.362L-0.463662 397.105C-3.64269 398.47 -3.64269 401.805 -0.463662 403.169C1.95845 404.23 4.98609 404.23 7.40821 403.169H7.4839C10.6629 401.805 10.6629 398.394 7.4839 397.029Z" fill="#F4FFFF"></path><path d="M37.0034 413.174L33.0675 411.507L29.0559 413.25C25.8768 414.615 25.8768 417.95 29.0559 419.314C31.478 420.375 34.5056 420.375 36.9277 419.314H37.0034C40.1825 417.95 40.1825 414.539 37.0034 413.174Z" fill="#F4FFFF"></path></g></svg>