<svg xmlns="http://www.w3.org/2000/svg" width="1258" height="224" viewBox="0 0 1258 224" fill="none"><mask id="mask0_2928_2395" style="mask-type:alpha" maskUnits="userSpaceOnUse" x="0" y="0" width="1258" height="225"><path d="M0 10C0 4.47716 4.47715 0 10 0H1248C1253.52 0 1258 4.47715 1258 10V214.002C1258 219.525 1253.52 224.002 1248 224.002H9.99999C4.47714 224.002 0 219.525 0 214.002V10Z" fill="#0B163E"></path></mask><g mask="url(#mask0_2928_2395)"><path d="M465.09 237.181L465.089 237.182M465.089 237.182L543.236 284.831L543.246 284.835C548.825 287.266 553.51 287.269 556.806 286.658C558.452 286.353 559.751 285.896 560.639 285.513C561.083 285.322 561.425 285.149 561.657 285.024C561.773 284.961 561.862 284.91 561.922 284.874C561.952 284.857 561.975 284.842 561.991 284.833L562.058 284.794L562.135 284.746L562.236 284.686L562.331 284.632L773.715 159.684L773.147 158.928L561.627 283.956L561.574 283.984L561.519 284.018C561.479 284.039 561.455 284.055 561.438 284.067C561.416 284.082 561.406 284.092 561.39 284.102C561.336 284.135 561.254 284.183 561.146 284.242C560.929 284.361 560.608 284.524 560.19 284.705C559.353 285.066 558.128 285.498 556.568 285.784C553.452 286.355 548.996 286.347 543.633 284.031L465.779 236.47L465.78 236.469L465.089 237.182ZM780.816 65.4776C786.114 65.4776 793.225 66.8216 801.824 71.5485L801.823 71.5495L904.211 126.876C909.574 129.192 914.03 129.2 917.145 128.629C918.706 128.343 919.931 127.911 920.768 127.55C921.186 127.369 921.507 127.206 921.724 127.087C921.832 127.028 921.914 126.98 921.968 126.946C921.984 126.937 921.994 126.927 922.016 126.912C922.033 126.9 922.057 126.884 922.097 126.863L922.152 126.829L922.205 126.801L976.813 95.2186L977.381 95.9737L922.908 127.477L922.814 127.531L922.713 127.591L922.636 127.639L922.569 127.678C922.553 127.687 922.53 127.701 922.5 127.719C922.44 127.755 922.351 127.806 922.235 127.869C922.003 127.994 921.661 128.167 921.217 128.358C920.329 128.741 919.03 129.198 917.384 129.503C914.088 130.114 909.403 130.111 903.824 127.68L903.814 127.676L801.133 72.2613L801.133 72.26C791.156 66.8576 783.336 66.1755 778.492 66.5435C773.24 66.9606 770.266 68.7216 770.266 68.7679C770.251 68.7679 769.912 68.9586 769.176 69.3729C767.531 70.2978 763.905 72.3375 757.485 75.8584C750.606 79.6585 747.213 83.5513 747.399 87.3977C747.672 93.5615 756.924 97.8636 757.418 98.0935C757.429 98.0987 757.436 98.1018 757.438 98.1028C757.671 98.1955 776.215 108.205 797.687 121.274C804.473 125.399 807.773 129.708 807.54 134.018C807.175 140.808 798.317 145.178 797.667 145.498L797.641 145.511L752.194 172.356L750.476 172.356L797.176 144.723C797.176 144.723 806.239 140.367 806.564 134.018C806.797 130.033 803.59 126.047 797.176 122.108C775.75 109.086 757.159 99.076 756.973 98.9833C756.96 98.9768 756.935 98.965 756.899 98.9479C755.916 98.4813 746.691 94.1057 746.377 87.444C746.191 83.1805 749.769 78.9633 756.973 75.0242C766.222 69.9265 769.708 67.9338 769.708 67.9338C769.987 67.7484 773.891 65.4776 780.816 65.4776ZM1170.96 127.082C1165.66 127.082 1158.55 125.738 1149.95 121.011L1149.95 121.01L1047.56 65.6837C1042.2 63.368 1037.74 63.36 1034.63 63.9311C1033.07 64.217 1031.84 64.6485 1031 65.0101C1030.59 65.191 1030.26 65.3542 1030.05 65.4728C1029.94 65.5321 1029.86 65.5801 1029.8 65.6135C1029.79 65.623 1029.78 65.6325 1029.76 65.6483C1029.74 65.6602 1029.71 65.6756 1029.67 65.6973L1029.62 65.7307L1029.57 65.7594L974.958 97.3413L974.391 96.5862L1028.86 65.083L1028.96 65.0286L1029.06 64.9688L1029.14 64.9211L1029.2 64.8823C1029.22 64.8725 1029.24 64.8585 1029.27 64.8407C1029.33 64.805 1029.42 64.754 1029.54 64.6912C1029.77 64.5658 1030.11 64.3931 1030.55 64.2018C1031.44 63.8193 1032.74 63.3616 1034.39 63.0567C1037.68 62.4464 1042.37 62.4492 1047.95 64.88L1047.96 64.8841L1150.64 120.299L1150.64 120.3C1160.62 125.702 1168.44 126.384 1173.28 126.016C1178.53 125.599 1181.51 123.838 1181.51 123.792C1181.52 123.792 1181.86 123.601 1182.6 123.187C1184.24 122.262 1187.87 120.222 1194.29 116.702C1201.17 112.901 1204.56 109.009 1204.37 105.162C1204.1 98.9984 1194.85 94.6963 1194.35 94.4664C1194.34 94.4612 1194.34 94.4581 1194.33 94.4571C1194.1 94.3644 1175.56 84.3544 1154.08 71.2858C1147.3 67.1613 1144 62.8515 1144.23 58.5416C1144.6 51.7523 1153.45 47.3822 1154.1 47.0614L1154.13 47.0486L1423.46 -112.041H1425.17L1154.6 47.8364C1154.6 47.8364 1145.53 52.1927 1145.21 58.5416C1144.97 62.5271 1148.18 66.5125 1154.6 70.4517C1176.02 83.474 1194.61 93.4839 1194.8 93.5766C1194.81 93.5831 1194.84 93.595 1194.87 93.612C1195.86 94.0786 1205.08 98.4542 1205.39 105.116C1205.58 109.379 1202 113.597 1194.8 117.536C1185.55 122.633 1182.06 124.626 1182.06 124.626C1181.78 124.812 1177.88 127.082 1170.96 127.082Z" stroke="url(#paint0_linear_2928_2395)" stroke-width="6"></path><path d="M1217.69 206.114C1214.09 206.114 1209.26 205.202 1203.43 201.994L1101.95 146.956C1098.31 145.384 1095.28 145.379 1093.17 145.767C1092.11 145.961 1091.28 146.254 1090.71 146.499C1090.43 146.622 1090.21 146.733 1090.06 146.813C1089.99 146.853 1089.93 146.886 1089.9 146.909C1089.89 146.912 1089.89 146.916 1089.88 146.92C1089.88 146.924 1089.87 146.927 1089.86 146.932C1089.85 146.94 1089.84 146.951 1089.81 146.965L1089.77 146.988L1089.74 147.008L1072.92 156.735L1072.93 156.75L1072.92 156.751L1072.9 156.764C1072.89 156.768 1072.88 156.772 1072.88 156.774C1072.86 156.782 1072.63 156.91 1072.21 157.145L1053.97 167.693C1051.59 169.108 1049.06 170.622 1046.45 172.209C1042.1 174.883 1039.92 177.588 1040.08 180.293C1040.3 184.603 1046.45 187.56 1046.45 187.56L1270.75 320.763H1269.58L1046.14 188.094L1046.12 188.086C1045.68 187.868 1039.67 184.902 1039.42 180.293C1039.26 177.368 1041.5 174.443 1046.1 171.643C1060.68 162.773 1072.4 156.239 1072.56 156.176L1072.57 156.17L1072.59 156.19L1089.26 146.548L1089.32 146.511L1089.39 146.471L1089.44 146.439L1089.49 146.412C1089.5 146.406 1089.52 146.396 1089.54 146.384C1089.58 146.36 1089.64 146.325 1089.72 146.283C1089.87 146.197 1090.1 146.08 1090.41 145.95C1091.01 145.691 1091.89 145.38 1093.01 145.173C1095.25 144.759 1098.43 144.761 1102.21 146.411L1102.22 146.413L1203.9 201.51C1210.67 205.177 1215.98 205.641 1219.26 205.391C1222.83 205.108 1224.85 203.913 1224.85 203.881C1224.86 203.881 1225.09 203.752 1225.59 203.471C1226.7 202.843 1229.17 201.458 1233.52 199.068C1238.19 196.489 1240.49 193.847 1240.37 191.236C1240.18 187.052 1233.9 184.132 1233.57 183.976L1233.55 183.97C1233.4 183.907 1220.81 177.112 1206.24 168.242C1201.63 165.442 1199.39 162.517 1199.55 159.592C1199.8 154.983 1205.81 152.017 1206.25 151.799L1206.27 151.791L1389.07 43.8071L1390.24 43.8071L1206.58 152.326C1206.58 152.326 1200.43 155.282 1200.21 159.592C1200.05 162.297 1202.23 165.002 1206.58 167.676C1221.13 176.515 1233.74 183.309 1233.87 183.372C1233.88 183.377 1233.9 183.385 1233.92 183.396C1234.59 183.713 1240.85 186.683 1241.06 191.204C1241.19 194.098 1238.76 196.961 1233.87 199.635C1227.59 203.095 1225.23 204.447 1225.23 204.447C1225.04 204.573 1222.39 206.114 1217.69 206.114Z" fill="#052D8B"></path><path d="M46.7129 156.223C46.7216 156.227 46.7377 156.235 46.761 156.246L46.7631 156.247L46.7537 156.262L63.5724 165.989L63.6082 166.008L63.6456 166.031C63.6723 166.046 63.6887 166.056 63.7003 166.064C63.707 166.069 63.712 166.073 63.7165 166.076C63.7221 166.081 63.7268 166.084 63.7328 166.088C63.7699 166.111 63.8254 166.143 63.8989 166.184C64.0457 166.264 64.2635 166.375 64.5474 166.498C65.1154 166.743 65.9474 167.036 67.0063 167.23C69.1212 167.618 72.1457 167.612 75.7859 166.04L177.264 111.004C183.1 107.795 187.927 106.882 191.523 106.882C196.223 106.882 198.873 108.423 199.063 108.549C199.063 108.549 201.429 109.902 207.706 113.362C212.596 116.036 215.025 118.898 214.899 121.792C214.686 126.314 208.424 129.284 207.757 129.6C207.732 129.612 207.715 129.62 207.706 129.624C207.58 129.687 194.962 136.482 180.418 145.321C176.065 147.994 173.888 150.7 174.046 153.405C174.267 157.714 180.418 160.671 180.418 160.671L364.076 269.189H362.91L180.103 161.206L180.085 161.197C179.644 160.979 173.632 158.013 173.384 153.405C173.226 150.479 175.466 147.554 180.071 144.755C194.646 135.884 207.233 129.09 207.391 129.027L207.404 129.021C207.74 128.865 214.02 125.944 214.205 121.761C214.331 119.15 212.028 116.508 207.359 113.928C203.002 111.538 200.54 110.154 199.424 109.526C198.924 109.245 198.694 109.116 198.684 109.116C198.684 109.084 196.665 107.889 193.1 107.606C189.813 107.356 184.505 107.819 177.732 111.486L177.733 111.487L76.055 166.583L76.0486 166.586C72.2618 168.236 69.0816 168.238 66.8446 167.824C65.7269 167.617 64.8457 167.306 64.2427 167.046C63.9412 166.916 63.7091 166.799 63.5516 166.714C63.4729 166.671 63.4128 166.637 63.372 166.613C63.3516 166.601 63.336 166.591 63.3253 166.584L63.2793 166.558L63.2272 166.526L63.1588 166.485L63.0946 166.448L46.4232 156.806L46.4109 156.827L46.3975 156.82C46.2397 156.757 34.5163 150.224 19.9418 141.353C15.336 138.554 13.0962 135.628 13.2539 132.703C13.502 128.095 19.5143 125.129 19.9557 124.911L19.9733 124.902L243.419 -7.7666L244.586 -7.7666L20.2888 125.437C20.2888 125.437 14.1372 128.394 13.9164 132.703C13.7587 135.408 15.9353 138.113 20.2888 140.787C22.9078 142.379 25.4363 143.896 27.8228 145.314L46.0299 155.844C46.4604 156.084 46.6956 156.214 46.7129 156.223Z" fill="#052D8B"></path></g><defs><linearGradient id="paint0_linear_2928_2395" x1="339.881" y1="286.997" x2="1203.01" y2="72.6353" gradientUnits="userSpaceOnUse"><stop stop-color="#1040B2"></stop><stop offset="0.394137" stop-color="#5F09B6"></stop><stop offset="1" stop-color="#FF9086"></stop></linearGradient></defs></svg>