<svg xmlns="http://www.w3.org/2000/svg" width="1445" height="737" viewBox="0 0 1445 737" fill="none"><mask id="mask0_3001_926" style="mask-type:alpha" maskUnits="userSpaceOnUse" x="0" y="0" width="1445" height="737"><rect x="0.85498" y="0.701904" width="1443.63" height="736.025" fill="#D9D9D9"></rect></mask><g mask="url(#mask0_3001_926)"><path d="M618.733 398.227C306.652 332.148 75.6515 407.405 -0.838867 453.293V736.972H1454.01V516.225C1242.89 579.157 1008.83 480.826 618.733 398.227Z" fill="url(#paint0_linear_3001_926)"></path><mask id="mask1_3001_926" style="mask-type:alpha" maskUnits="userSpaceOnUse" x="-1" y="372" width="1456" height="365"><path d="M618.733 398.227C306.652 332.148 75.6515 407.405 -0.838867 453.293V736.536L1454.01 736.727V516.225C1242.89 579.157 1008.83 480.826 618.733 398.227Z" fill="url(#paint1_linear_3001_926)"></path></mask><g mask="url(#mask1_3001_926)"><path d="M640.573 391.356L640.574 391.355M640.574 391.355L536.286 327.767L536.274 327.762C528.828 324.518 522.576 324.514 518.178 325.328C515.98 325.735 514.248 326.346 513.062 326.857C512.469 327.112 512.013 327.342 511.703 327.51C511.549 327.594 511.43 327.662 511.35 327.709C511.31 327.733 511.279 327.752 511.258 327.765L511.168 327.816L511.066 327.88L510.931 327.96L510.805 328.033L228.711 494.777L229.469 495.784L511.744 328.935L511.815 328.897L511.888 328.852C511.941 328.823 511.973 328.803 511.996 328.787C512.026 328.766 512.039 328.753 512.06 328.74C512.132 328.696 512.242 328.632 512.386 328.553C512.675 328.394 513.103 328.177 513.661 327.935C514.778 327.453 516.414 326.877 518.496 326.495C522.654 325.733 528.6 325.744 535.757 328.834L639.653 392.305L639.652 392.306L640.574 391.355ZM219.235 620.495C212.165 620.495 202.675 618.701 191.201 612.393L191.201 612.392L54.5648 538.558C47.4079 535.468 41.4614 535.457 37.3033 536.219C35.2214 536.601 33.5856 537.177 32.469 537.659C31.9108 537.901 31.4826 538.118 31.1938 538.277C31.0495 538.356 30.9403 538.42 30.8673 538.464C30.8465 538.477 30.8333 538.49 30.8034 538.511C30.7807 538.527 30.7484 538.547 30.6959 538.576L30.6223 538.621L30.5519 538.659L-42.3231 580.805L-43.081 579.798L29.6125 537.757L29.7389 537.684L29.8734 537.604L29.9758 537.54L30.0662 537.489C30.0872 537.476 30.1179 537.457 30.158 537.433C30.2383 537.386 30.3564 537.318 30.5112 537.234C30.8208 537.066 31.2771 536.836 31.8699 536.581C33.0555 536.07 34.7879 535.459 36.9855 535.052C41.3837 534.238 47.6362 534.242 55.0813 537.486L55.0938 537.491L192.123 611.442L192.122 611.444C205.437 618.653 215.873 619.563 222.337 619.072C229.345 618.516 233.315 616.166 233.315 616.104C233.334 616.104 233.786 615.849 234.769 615.297C236.964 614.062 241.804 611.34 250.371 606.642C259.551 601.57 264.078 596.375 263.83 591.242C263.466 583.017 251.119 577.276 250.46 576.969C250.445 576.962 250.436 576.958 250.433 576.956C250.123 576.833 225.376 563.474 196.721 546.034C187.665 540.53 183.262 534.779 183.572 529.027C184.06 519.967 195.88 514.135 196.748 513.707L196.783 513.69L257.431 477.865L259.725 477.865L197.403 514.741C197.403 514.741 185.308 520.554 184.874 529.027C184.564 534.346 188.844 539.664 197.403 544.921C225.996 562.299 250.805 575.658 251.053 575.781C251.071 575.79 251.104 575.806 251.152 575.829C252.465 576.451 264.776 582.29 265.195 591.181C265.443 596.87 260.667 602.498 251.053 607.755C238.711 614.558 234.059 617.217 234.059 617.217C233.687 617.464 228.477 620.495 219.235 620.495ZM-301.407 538.283C-294.336 538.283 -284.846 540.077 -273.372 546.385L-273.373 546.386L-136.736 620.22C-129.579 623.31 -123.633 623.321 -119.475 622.559C-117.393 622.177 -115.757 621.601 -114.64 621.119C-114.082 620.877 -113.654 620.66 -113.365 620.501C-113.221 620.422 -113.112 620.358 -113.039 620.314C-113.018 620.301 -113.005 620.288 -112.975 620.267C-112.952 620.251 -112.92 620.231 -112.867 620.202L-112.794 620.157L-112.723 620.119L-39.8483 577.973L-39.0904 578.98L-111.784 621.021L-111.91 621.094L-112.045 621.174L-112.147 621.238L-112.238 621.289C-112.259 621.302 -112.289 621.321 -112.329 621.345C-112.41 621.392 -112.528 621.46 -112.683 621.544C-112.992 621.712 -113.448 621.942 -114.041 622.197C-115.227 622.708 -116.959 623.319 -119.157 623.726C-123.555 624.54 -129.808 624.536 -137.253 621.292L-137.265 621.287L-274.294 547.336L-274.293 547.334C-287.609 540.125 -298.044 539.215 -304.508 539.706C-311.517 540.262 -315.486 542.612 -315.486 542.674C-315.505 542.674 -315.958 542.929 -316.941 543.481C-319.135 544.716 -323.975 547.438 -332.543 552.136C-341.722 557.208 -346.25 562.402 -346.002 567.536C-345.638 575.761 -333.291 581.502 -332.631 581.809C-332.616 581.816 -332.607 581.82 -332.605 581.822C-332.295 581.945 -307.547 595.304 -278.892 612.744C-269.837 618.248 -265.433 623.999 -265.743 629.751C-266.231 638.811 -278.052 644.643 -278.919 645.071L-278.954 645.088L-638.369 857.394H-640.662L-279.574 644.037C-279.574 644.037 -267.48 638.224 -267.046 629.751C-266.736 624.432 -271.015 619.114 -279.574 613.857C-308.167 596.479 -332.977 583.12 -333.225 582.997C-333.242 582.988 -333.276 582.972 -333.324 582.949C-334.636 582.327 -346.947 576.487 -347.366 567.597C-347.614 561.908 -342.839 556.28 -333.225 551.023C-320.882 544.22 -316.23 541.561 -316.23 541.561C-315.858 541.314 -310.648 538.283 -301.407 538.283Z" stroke="url(#paint2_linear_3001_926)" stroke-width="6"></path><path d="M1184.32 504.039L1184.32 504.037C1197.64 496.828 1208.07 495.917 1214.54 496.408C1221.55 496.965 1225.52 499.315 1225.52 499.377C1225.54 499.377 1225.99 499.631 1226.97 500.184C1229.17 501.418 1234 504.14 1242.57 508.839C1251.75 513.91 1256.28 519.105 1256.03 524.238C1255.67 532.464 1243.32 538.205 1242.66 538.512C1242.65 538.519 1242.64 538.523 1242.63 538.524C1242.32 538.648 1217.58 552.006 1188.92 569.446C1179.87 574.951 1175.46 580.702 1175.77 586.454C1176.26 595.514 1188.08 601.346 1188.95 601.774L1188.98 601.791L1249.63 637.616L1251.93 637.616L1189.6 600.74C1189.6 600.74 1177.51 594.926 1177.08 586.454C1176.77 581.135 1181.04 575.816 1189.6 570.56C1218.2 553.181 1243.01 539.823 1243.25 539.699C1243.27 539.691 1243.31 539.675 1243.35 539.652C1244.67 539.029 1256.98 533.19 1257.4 524.3C1257.64 518.611 1252.87 512.983 1243.25 507.726C1230.91 500.923 1226.26 498.264 1226.26 498.264C1225.89 498.016 1220.68 494.986 1211.44 494.986C1204.37 494.986 1194.88 496.779 1183.4 503.088L1183.4 503.089M1632.77 724.124L1632.78 724.126M1632.78 724.126L1528.49 787.714L1528.47 787.719C1521.03 790.963 1514.78 790.967 1510.38 790.152C1508.18 789.745 1506.45 789.135 1505.26 788.624C1504.67 788.369 1504.21 788.138 1503.9 787.971C1503.75 787.887 1503.63 787.819 1503.55 787.772C1503.51 787.748 1503.48 787.729 1503.46 787.716L1503.37 787.664L1503.27 787.6L1503.13 787.521L1503.01 787.448L1220.91 620.704L1221.67 619.696L1503.95 786.546L1504.02 786.584L1504.09 786.628C1504.14 786.657 1504.17 786.678 1504.2 786.694C1504.23 786.715 1504.24 786.728 1504.26 786.74C1504.33 786.785 1504.44 786.849 1504.59 786.928C1504.88 787.086 1505.3 787.304 1505.86 787.545C1506.98 788.028 1508.61 788.604 1510.7 788.985C1514.85 789.748 1520.8 789.737 1527.96 786.647L1631.85 723.176L1631.85 723.175L1632.78 724.126Z" stroke="url(#paint3_linear_3001_926)" stroke-width="6"></path></g><path d="M-0.838867 453.293C75.6515 407.405 306.652 332.148 618.733 398.227C1008.83 480.826 1242.89 579.157 1454.01 516.225" stroke="url(#paint4_linear_3001_926)" stroke-width="3"></path><g opacity="0.4"><path d="M630.371 337.22C319.377 403.298 66.6411 323.082 -9.58301 277.194L-1.01423 520.877H1462.74V219.221C1252.36 156.289 1019.11 254.621 630.371 337.22Z" fill="url(#paint5_linear_3001_926)"></path><path d="M-0.0439453 284.154C76.1801 330.042 306.377 405.299 617.371 339.22C1006.11 256.621 1239.36 158.29 1449.74 221.222" stroke="url(#paint6_linear_3001_926)" stroke-width="3"></path></g><g opacity="0.3"><path d="M827.068 141.219C1138.06 207.298 1368.26 132.042 1444.48 86.1537L1458.45 324.876H-5.29919V23.2213C205.079 -39.711 438.325 58.6208 827.068 141.219Z" fill="url(#paint7_linear_3001_926)"></path><path d="M1444.48 86.1542C1368.26 132.042 1138.06 207.299 827.067 141.22C438.324 58.6213 205.079 -39.7104 -5.29975 23.2219" stroke="url(#paint8_linear_3001_926)" stroke-width="3"></path></g></g><defs><linearGradient id="paint0_linear_3001_926" x1="726.584" y1="-39.4298" x2="726.584" y2="736.972" gradientUnits="userSpaceOnUse"><stop stop-color="#5F09B6" stop-opacity="0.4"></stop><stop offset="0.709804" stop-color="#D0FFFF" stop-opacity="0"></stop></linearGradient><linearGradient id="paint1_linear_3001_926" x1="726.584" y1="-39.4301" x2="726.584" y2="736.972" gradientUnits="userSpaceOnUse"><stop stop-color="#5F09B6"></stop><stop offset="0.709804" stop-color="#5501AD"></stop></linearGradient><linearGradient id="paint2_linear_3001_926" x1="807.665" y1="324.876" x2="-344.179" y2="610.943" gradientUnits="userSpaceOnUse"><stop stop-color="#1040B2"></stop><stop offset="0.394137" stop-color="#7F01FF"></stop><stop offset="1" stop-color="#FF9086"></stop></linearGradient><linearGradient id="paint3_linear_3001_926" x1="1799.87" y1="790.604" x2="648.022" y2="504.538" gradientUnits="userSpaceOnUse"><stop stop-color="#1040B2"></stop><stop offset="0.394137" stop-color="#7F01FF"></stop><stop offset="1" stop-color="#FF9086"></stop></linearGradient><linearGradient id="paint4_linear_3001_926" x1="-65.0908" y1="454.223" x2="1371.08" y2="495.788" gradientUnits="userSpaceOnUse"><stop offset="0.460896" stop-color="#7F01FF"></stop><stop offset="1" stop-color="#D0FFFF" stop-opacity="0"></stop></linearGradient><linearGradient id="paint5_linear_3001_926" x1="574.163" y1="-51.4961" x2="667.153" y2="431.168" gradientUnits="userSpaceOnUse"><stop offset="0.198276" stop-color="#5F09B6" stop-opacity="0.3"></stop><stop offset="0.665585" stop-color="#D0FFFF" stop-opacity="0"></stop></linearGradient><linearGradient id="paint6_linear_3001_926" x1="1449.74" y1="169.428" x2="-27.4647" y2="180.064" gradientUnits="userSpaceOnUse"><stop stop-color="#7F01FF"></stop><stop offset="0.524535" stop-color="#3E9BF4" stop-opacity="0.05"></stop><stop offset="1" stop-color="#7F01FF"></stop></linearGradient><linearGradient id="paint7_linear_3001_926" x1="726.577" y1="-224.425" x2="726.577" y2="324.876" gradientUnits="userSpaceOnUse"><stop offset="0.198276" stop-color="#5F09B6" stop-opacity="0.3"></stop><stop offset="1" stop-color="#D0FFFF" stop-opacity="0"></stop></linearGradient><linearGradient id="paint8_linear_3001_926" x1="-5.29972" y1="-28.5718" x2="1471.9" y2="-17.9361" gradientUnits="userSpaceOnUse"><stop offset="0.395876" stop-color="#7F01FF"></stop><stop offset="0.9999" stop-color="#3E9BF4" stop-opacity="0.05"></stop><stop offset="1" stop-color="#D0FFFF" stop-opacity="0"></stop></linearGradient></defs></svg>