<svg xmlns="http://www.w3.org/2000/svg" width="166" height="44" viewBox="0 0 166 44" fill="none">
  <path d="M43.3326 22.4858C42.1743 21.8056 40.2548 21.9352 39.3282 22.9393C38.8318 31.6851 31.4186 38.6493 22.3508 38.6493C13.283 38.6493 5.34032 31.1992 5.34032 22C5.34032 12.8331 12.952 5.35062 22.3508 5.35062C29.797 5.35062 36.1511 10.0798 38.4346 16.6229C39.4275 16.299 40.4865 16.1371 41.6117 16.1371C42.1412 16.1371 42.6376 16.1695 43.134 16.2342C40.5527 7.3913 32.2129 0.880554 22.3508 0.880554C-6.27579 1.98187 -6.27579 42.0181 22.3508 43.1194C34.2648 43.1194 43.3988 34.1469 43.8952 22.9069C43.7297 22.745 43.5312 22.6154 43.3326 22.4858Z" fill="#3F9AF5"/>
  <path d="M28.3408 16.2342L31.4847 13.157C29.0358 10.8896 26.2227 9.75588 22.6155 9.78827C17.6513 9.75588 13.1505 12.6387 11.2972 17.1088C7.98777 25.0772 13.7131 33.823 22.6486 33.7906C26.1566 33.823 29.1681 32.6245 31.6171 30.3894L28.4732 27.3122C26.9508 28.8994 24.9983 29.6444 22.6155 29.612C19.5046 29.6768 16.6585 27.8953 15.6326 25.0124C14.6066 22.1619 15.0038 18.3397 17.2211 16.1371C20.001 13.2218 25.6601 13.2866 28.3408 16.2342Z" fill="#FBFFFF"/>
  <path d="M69.2453 21.1902C67.2265 17.1412 61.1041 15.6188 57.6954 18.858V17.4327H53.2607V40.1717H57.6623V32.0738C58.8868 33.2399 60.5415 33.7906 62.3286 33.7906C69.0136 33.7906 72.0252 26.5672 69.2453 21.1902ZM65.1416 27.6685C64.4135 28.9966 63.189 29.8064 61.5674 29.774C57.0997 29.8712 55.9745 23.7491 59.4494 21.6437C60.6739 20.8986 62.5602 20.9634 63.7516 21.7084C65.7042 22.8745 66.1675 25.7574 65.1416 27.6685Z" fill="#FBFFFF"/>
  <path d="M83.4097 17.4327L79.5045 27.6037L75.798 17.4327H70.9331L77.1548 32.0738L73.2166 40.2041H77.9822C79.9017 35.896 86.2558 21.8704 88.2745 17.4327C88.1752 17.4327 83.4097 17.4327 83.4097 17.4327Z" fill="#FBFFFF"/>
  <path d="M90.0615 33.4667V9.49677H94.4962V33.4667H90.0615Z" fill="#FBFFFF"/>
  <path d="M112.963 20.9634C110.051 15.554 101.413 15.9751 98.4678 21.1578C97.7066 22.4211 97.3426 23.8139 97.3426 25.4335C97.2764 30.3247 101.38 33.8878 106.278 33.823C108.859 33.823 111.242 32.9808 112.93 31.0373L110.282 28.4459C108.793 30.2599 105.815 30.519 103.796 29.5473C102.836 28.9966 102.075 28.0572 101.843 26.9883L113.79 26.9559C114.254 24.9476 113.923 22.6478 112.963 20.9634ZM103.664 21.2874C105.55 20.2508 108.429 20.5747 109.389 22.6802C109.554 22.9717 109.654 23.328 109.753 23.7167L101.843 23.7491C102.075 22.7126 102.77 21.8056 103.664 21.2874Z" fill="#FBFFFF"/>
  <path d="M128.319 17.4327V18.9551C126.168 16.6877 122.13 16.5258 119.582 18.1777C112.963 22.2591 115.246 33.7258 123.586 33.7582C125.406 33.7582 127.094 33.2075 128.352 31.9442V33.4343H132.82V17.4327H128.319ZM127.425 28.5431C126.664 29.3529 125.638 29.774 124.414 29.774C121.965 29.8064 120.111 27.7657 120.244 25.3687C120.178 22 123.652 20.0241 126.565 21.6761C128.782 23.0365 129.212 26.7292 127.425 28.5431Z" fill="#FBFFFF"/>
  <path d="M152.478 33.4667L145.727 25.0772L152.18 17.4327H147.017L141.093 24.7857V9.49677H136.659V33.4667H141.093V25.6602L147.05 33.4667H152.478Z" fill="#FBFFFF"/>
  <path d="M159.262 33.823C156.581 33.823 153.867 32.8188 152.146 30.8105L154.827 28.1868C155.919 29.4825 157.442 30.0655 159.196 30.0655C159.924 30.0655 160.486 29.9684 160.85 29.7416C161.645 29.3205 161.578 28.2516 160.817 27.8629C158.6 26.6968 155.257 26.8264 153.735 24.4618C152.875 23.1661 152.941 20.7367 153.934 19.4086C154.463 18.6636 155.191 18.0482 156.151 17.6595C159.262 16.3962 163.829 16.9793 165.881 19.7973L163.2 22.4535C162.042 20.9958 159.626 20.3156 158.004 21.0606C157.309 21.4493 157.375 22.4535 158.07 22.8098C158.434 23.0041 158.964 23.1985 159.593 23.3928C160.85 23.7815 162.373 24.1378 163.531 24.8505C164.921 25.725 165.682 26.9559 165.649 28.7375C165.649 32.2034 162.737 33.8554 159.262 33.823Z" fill="#FBFFFF"/>
  <path d="M33.9999 21.1578C32.4776 23.6196 32.4445 27.2151 34.0661 29.6768C34.4302 30.2923 34.8935 30.8429 35.3899 31.3288C35.5554 31.4584 35.787 31.6851 36.0518 31.8471C36.9453 30.6486 37.6734 29.3529 38.236 27.9277C37.7727 27.1827 37.6403 26.7616 37.541 25.9518C37.4748 25.4983 37.4748 25.0124 37.541 24.5589C37.6072 24.0083 37.7727 23.5548 38.0374 23.1337C39.8576 19.9593 44.7225 20.6395 45.6822 24.0731C45.7815 24.397 45.8146 24.7209 45.8146 25.0448C45.8808 26.1785 45.8146 26.7292 45.3182 27.7009C44.9541 28.3488 44.4246 28.867 43.7958 29.191C43.4318 29.4501 42.8361 29.5797 42.439 29.7092C41.8764 31.1345 41.1814 32.4949 40.3209 33.7258C40.354 33.7258 40.3871 33.7258 40.3871 33.7258C45.8808 34.3089 50.4147 30.5514 50.3816 25.142C50.3154 16.5906 38.3684 14.064 33.9999 21.1578Z" fill="#FBFFFF"/>
</svg>