<svg xmlns="http://www.w3.org/2000/svg" width="1797" height="984" viewBox="0 0 1797 984" fill="none"><path d="M157.868 647.568L161.804 645.901L165.816 647.644C168.995 649.008 168.995 652.343 165.816 653.708C163.394 654.769 160.366 654.769 157.944 653.708H157.868C154.689 652.343 154.689 648.933 157.868 647.568Z" fill="#F4FFFF"></path><path d="M128.349 663.713L132.285 662.046L136.296 663.789C139.475 665.153 139.475 668.488 136.296 669.853C133.874 670.914 130.847 670.914 128.424 669.853H128.349C125.17 668.488 125.17 665.078 128.349 663.713Z" fill="#F4FFFF"></path><path d="M215.007 614.52L218.943 612.852L222.955 614.595C226.134 615.96 226.134 619.295 222.955 620.659C220.533 621.72 217.505 621.72 215.083 620.659H215.007C211.828 619.295 211.828 615.884 215.007 614.52Z" fill="#F4FFFF"></path><path d="M185.488 630.665L189.424 628.997L193.435 630.74C196.614 632.105 196.614 635.44 193.435 636.804C191.013 637.866 187.985 637.866 185.563 636.804H185.488C182.309 635.44 182.309 632.029 185.488 630.665Z" fill="#F4FFFF"></path><path d="M44.7355 712.069L48.6714 710.401L52.683 712.145C55.862 713.509 55.862 716.844 52.683 718.209C50.2609 719.27 47.2333 719.27 44.8112 718.209H44.7355C41.5564 716.844 41.5564 713.433 44.7355 712.069Z" fill="#F4FFFF"></path><path d="M15.2159 728.214L19.1519 726.546L23.1635 728.29C26.3425 729.654 26.3425 732.989 23.1635 734.354C20.7414 735.415 17.7137 735.415 15.2916 734.354H15.2159C12.0369 732.989 12.0369 729.578 15.2159 728.214Z" fill="#F4FFFF"></path><path d="M101.874 679.02L105.81 677.353L109.822 679.096C113.001 680.461 113.001 683.796 109.822 685.16C107.4 686.221 104.372 686.221 101.95 685.16H101.874C98.6952 683.796 98.6952 680.385 101.874 679.02Z" fill="#F4FFFF"></path><path d="M72.3549 695.165L76.2908 693.498L80.3024 695.241C83.4814 696.606 83.4814 699.941 80.3024 701.305C77.8803 702.366 74.8527 702.366 72.4305 701.305H72.3549C69.1758 699.941 69.1758 696.53 72.3549 695.165Z" fill="#F4FFFF"></path><path d="M269.175 583.715L273.11 582.048L277.122 583.791C280.301 585.156 280.301 588.491 277.122 589.855C274.7 590.916 271.672 590.916 269.25 589.855H269.175C265.996 588.491 265.996 585.08 269.175 583.715Z" fill="#F4FFFF"></path><path d="M239.655 599.86L243.591 598.193L247.602 599.936C250.781 601.301 250.781 604.636 247.602 606C245.18 607.061 242.153 607.061 239.731 606H239.655C236.476 604.636 236.476 601.225 239.655 599.86Z" fill="#F4FFFF"></path><path d="M326.313 550.667L330.249 548.999L334.261 550.743C337.44 552.107 337.44 555.442 334.261 556.807C331.839 557.868 328.811 557.868 326.389 556.807H326.313C323.134 555.442 323.134 552.031 326.313 550.667Z" fill="#F4FFFF"></path><path d="M296.794 566.812L300.73 565.144L304.741 566.888C307.92 568.252 307.92 571.587 304.741 572.952C302.319 574.013 299.292 574.013 296.87 572.952H296.794C293.615 571.587 293.615 568.176 296.794 566.812Z" fill="#F4FFFF"></path><path d="M383.306 519.47L387.242 517.803L391.253 519.546C394.432 520.91 394.432 524.246 391.253 525.61C388.831 526.671 385.803 526.671 383.381 525.61H383.306C380.127 524.246 380.127 520.835 383.306 519.47Z" fill="#F4FFFF"></path><path d="M353.786 535.615L357.722 533.948L361.734 535.691C364.913 537.055 364.913 540.391 361.734 541.755C359.312 542.816 356.284 542.816 353.862 541.755H353.786C350.607 540.391 350.607 536.98 353.786 535.615Z" fill="#F4FFFF"></path><path d="M440.444 486.421L444.38 484.754L448.392 486.497C451.571 487.862 451.571 491.197 448.392 492.561C445.97 493.622 442.942 493.622 440.52 492.561H440.444C437.265 491.197 437.265 487.786 440.444 486.421Z" fill="#F4FFFF"></path><path d="M410.925 502.566L414.861 500.899L418.873 502.642C422.052 504.007 422.052 507.342 418.873 508.706C416.45 509.767 413.423 509.767 411.001 508.706H410.925C407.746 507.342 407.746 503.931 410.925 502.566Z" fill="#F4FFFF"></path><path d="M494.612 455.617L498.548 453.95L502.559 455.693C505.738 457.057 505.738 460.393 502.559 461.757C500.137 462.818 497.11 462.818 494.687 461.757H494.612C491.433 460.393 491.433 456.982 494.612 455.617Z" fill="#F4FFFF"></path><path d="M465.092 471.762L469.028 470.095L473.04 471.838C476.219 473.202 476.219 476.538 473.04 477.902C470.618 478.963 467.59 478.963 465.168 477.902H465.092C461.913 476.538 461.913 473.127 465.092 471.762Z" fill="#F4FFFF"></path><path d="M551.751 422.569L555.687 420.901L559.698 422.645C562.877 424.009 562.877 427.344 559.698 428.709C557.276 429.77 554.248 429.77 551.826 428.709H551.751C548.572 427.344 548.572 423.933 551.751 422.569Z" fill="#F4FFFF"></path><path d="M522.231 438.714L526.167 437.046L530.179 438.79C533.358 440.154 533.358 443.489 530.179 444.854C527.757 445.915 524.729 445.915 522.307 444.854H522.231C519.052 443.489 519.052 440.078 522.231 438.714Z" fill="#F4FFFF"></path><path d="M608.889 389.52L612.825 387.852L616.837 389.596C620.016 390.96 620.016 394.295 616.837 395.66C614.415 396.721 611.387 396.721 608.965 395.66H608.889C605.71 394.295 605.71 390.884 608.889 389.52Z" fill="#F4FFFF"></path><path d="M579.37 405.665L583.306 403.997L587.318 405.741C590.497 407.105 590.497 410.44 587.318 411.805C584.895 412.866 581.868 412.866 579.446 411.805H579.37C576.191 410.44 576.191 407.029 579.37 405.665Z" fill="#F4FFFF"></path><path d="M663.057 358.716L666.993 357.048L671.004 358.792C674.183 360.156 674.183 363.491 671.004 364.856C668.582 365.917 665.555 365.917 663.133 364.856H663.057C659.878 363.491 659.878 360.08 663.057 358.716Z" fill="#F4FFFF"></path><path d="M633.537 374.861L637.473 373.193L641.485 374.937C644.664 376.301 644.664 379.636 641.485 381.001C639.063 382.062 636.035 382.062 633.613 381.001H633.537C630.358 379.636 630.358 376.225 633.537 374.861Z" fill="#F4FFFF"></path><path d="M720.196 325.667L724.132 324L728.143 325.743C731.322 327.108 731.322 330.443 728.143 331.807C725.721 332.868 722.693 332.868 720.271 331.807H720.196C717.017 330.443 717.017 327.032 720.196 325.667Z" fill="#F4FFFF"></path><path d="M690.676 341.812L694.612 340.145L698.624 341.888C701.803 343.253 701.803 346.588 698.624 347.952C696.202 349.013 693.174 349.013 690.752 347.952H690.676C687.497 346.588 687.497 343.177 690.676 341.812Z" fill="#F4FFFF"></path><path fill-rule="evenodd" clip-rule="evenodd" d="M189.543 174.923C200.947 168.537 212.354 171.295 216.717 173.525L216.744 173.539L216.77 173.554C239.595 186.991 289.167 216.186 304.852 225.464C312.848 230.194 315.353 235.124 314.699 239.579C314.067 243.88 310.533 247.227 307.622 248.993L307.615 248.997C290.309 259.307 251.518 282.567 234.744 293.161C226.507 298.363 223.843 303.452 223.597 307.534C223.352 311.615 225.502 315.007 227.621 316.905C270.174 341.774 360.031 394.356 379.683 406.114C389.275 411.853 400.235 413.071 410.098 412.224C419.949 411.379 428.619 408.48 433.566 406.082C509.685 364.93 665.645 280.547 680.775 272.099C696.301 263.431 711.299 268.456 716.951 272.12L803.344 322.253L802.34 323.983L715.903 273.825L715.882 273.811C710.69 270.433 696.48 265.621 681.75 273.846C666.603 282.302 510.597 366.71 434.498 407.851L434.479 407.862L434.459 407.871C429.309 410.372 420.392 413.348 410.269 414.217C400.143 415.086 388.723 413.853 378.656 407.83C359.002 396.071 269.051 343.434 226.526 318.582L226.443 318.533L226.37 318.469C223.91 316.304 221.306 312.326 221.601 307.414C221.899 302.459 225.124 296.871 233.676 291.47C250.475 280.86 289.286 257.588 306.588 247.281C309.29 245.641 312.216 242.721 312.72 239.288C313.202 236.006 311.52 231.733 303.833 227.185C288.157 217.912 238.619 188.737 215.781 175.293C211.84 173.291 201.182 170.698 190.52 176.668C179.463 182.86 60.3184 246.381 0.967529 277.974L0.967753 275.76C60.3385 244.156 178.511 181.102 189.543 174.923Z" fill="#FBFFFF"></path><path fill-rule="evenodd" clip-rule="evenodd" d="M457.039 381.237C443.036 388.968 431.456 391.167 422.827 391.167C411.549 391.167 405.191 387.452 404.737 387.149C404.737 387.149 399.06 383.89 383.997 375.552C372.265 369.109 366.437 362.211 366.74 355.238C367.251 344.341 382.275 337.185 383.877 336.421C383.935 336.394 383.976 336.374 383.997 336.363C384.3 336.212 414.577 319.839 449.47 298.54C459.916 292.097 465.138 285.578 464.76 279.059C464.23 268.674 449.47 261.549 449.47 261.549L8.8133 0.0477631L11.6121 0.0477494L450.227 260.261L450.269 260.282C451.327 260.806 465.754 267.954 466.349 279.059C466.728 286.108 461.354 293.158 450.303 299.904C415.333 321.279 385.133 337.652 384.754 337.804C384.751 337.805 384.74 337.81 384.722 337.819C383.917 338.195 368.849 345.232 368.405 355.313C368.102 361.605 373.628 367.972 384.83 374.187C395.286 379.946 401.192 383.283 403.87 384.795C405.07 385.473 405.622 385.785 405.645 385.785C405.645 385.861 410.489 388.741 419.042 389.423C426.931 390.025 439.666 388.91 455.915 380.073L455.914 380.071L699.874 247.303L699.889 247.296C708.975 243.32 716.605 243.315 721.972 244.314C724.654 244.812 726.768 245.561 728.215 246.187C728.939 246.5 729.495 246.782 729.873 246.987C730.062 247.09 730.206 247.173 730.304 247.232C730.328 247.246 730.35 247.259 730.368 247.27C730.387 247.282 730.403 247.292 730.416 247.3L730.527 247.363L730.652 247.441L730.816 247.539L730.97 247.628L819.682 299.156L818.757 300.391L729.824 248.734L729.738 248.687L729.648 248.633C729.499 248.551 729.483 248.523 729.439 248.496C729.35 248.441 729.216 248.363 729.04 248.266C728.688 248.072 728.165 247.805 727.484 247.509C726.121 246.917 724.125 246.212 721.584 245.744C716.51 244.81 709.253 244.823 700.519 248.611L457.038 381.235L457.039 381.237Z" fill="#112960"></path><path d="M1715.86 273.359L1711.92 275.027L1707.91 273.283C1704.73 271.919 1704.73 268.584 1707.91 267.219C1710.33 266.158 1713.36 266.158 1715.78 267.219H1715.86C1719.04 268.584 1719.04 271.995 1715.86 273.359Z" fill="#F4FFFF"></path><path d="M1745.38 257.214L1741.44 258.881L1737.43 257.138C1734.25 255.774 1734.25 252.438 1737.43 251.074C1739.85 250.013 1742.88 250.013 1745.3 251.074H1745.38C1748.56 252.438 1748.56 255.849 1745.38 257.214Z" fill="#F4FFFF"></path><path d="M1771.59 241.739L1767.65 243.407L1763.64 241.663C1760.46 240.299 1760.46 236.964 1763.64 235.599C1766.06 234.538 1769.09 234.538 1771.51 235.599H1771.59C1774.77 236.964 1774.77 240.375 1771.59 241.739Z" fill="#F4FFFF"></path><path d="M1658.72 306.407L1654.78 308.075L1650.77 306.332C1647.59 304.967 1647.59 301.632 1650.77 300.268C1653.19 299.206 1656.22 299.206 1658.64 300.268H1658.72C1661.9 301.632 1661.9 305.043 1658.72 306.407Z" fill="#F4FFFF"></path><path d="M1688.24 290.262L1684.3 291.93L1680.29 290.187C1677.11 288.822 1677.11 285.487 1680.29 284.123C1682.71 283.061 1685.74 283.061 1688.16 284.123H1688.24C1691.42 285.487 1691.42 288.898 1688.24 290.262Z" fill="#F4FFFF"></path><path d="M1604.55 337.212L1600.62 338.879L1596.6 337.136C1593.42 335.771 1593.42 332.436 1596.6 331.072C1599.03 330.011 1602.05 330.011 1604.48 331.072H1604.55C1607.73 332.436 1607.73 335.847 1604.55 337.212Z" fill="#F4FFFF"></path><path d="M1634.07 321.067L1630.14 322.734L1626.12 320.991C1622.94 319.626 1622.94 316.291 1626.12 314.927C1628.55 313.866 1631.57 313.866 1634 314.927H1634.07C1637.25 316.291 1637.25 319.702 1634.07 321.067Z" fill="#F4FFFF"></path><path d="M1547.41 370.26L1543.48 371.928L1539.47 370.184C1536.29 368.82 1536.29 365.485 1539.47 364.12C1541.89 363.059 1544.91 363.059 1547.34 364.12H1547.41C1550.59 365.485 1550.59 368.896 1547.41 370.26Z" fill="#F4FFFF"></path><path d="M1576.93 354.115L1573 355.783L1568.98 354.039C1565.81 352.675 1565.81 349.34 1568.98 347.975C1571.41 346.914 1574.43 346.914 1576.86 347.975H1576.93C1580.11 349.34 1580.11 352.751 1576.93 354.115Z" fill="#F4FFFF"></path><path d="M1490.42 401.457L1486.48 403.124L1482.47 401.381C1479.29 400.017 1479.29 396.681 1482.47 395.317C1484.89 394.256 1487.92 394.256 1490.34 395.317H1490.42C1493.6 396.681 1493.6 400.092 1490.42 401.457Z" fill="#F4FFFF"></path><path d="M1519.94 385.312L1516 386.979L1511.99 385.236C1508.81 383.872 1508.81 380.536 1511.99 379.172C1514.41 378.111 1517.44 378.111 1519.86 379.172H1519.94C1523.12 380.536 1523.12 383.947 1519.94 385.312Z" fill="#F4FFFF"></path><path d="M1433.28 434.506L1429.35 436.173L1425.33 434.43C1422.15 433.065 1422.15 429.73 1425.33 428.366C1427.76 427.305 1430.78 427.305 1433.21 428.366H1433.28C1436.46 429.73 1436.46 433.141 1433.28 434.506Z" fill="#F4FFFF"></path><path d="M1462.8 418.361L1458.86 420.028L1454.85 418.285C1451.67 416.92 1451.67 413.585 1454.85 412.221C1457.28 411.16 1460.3 411.16 1462.73 412.221H1462.8C1465.98 413.585 1465.98 416.996 1462.8 418.361Z" fill="#F4FFFF"></path><path d="M1379.11 465.31L1375.18 466.977L1371.17 465.234C1367.99 463.87 1367.99 460.535 1371.17 459.17C1373.59 458.109 1376.62 458.109 1379.04 459.17H1379.11C1382.29 460.535 1382.29 463.945 1379.11 465.31Z" fill="#F4FFFF"></path><path d="M1408.63 449.165L1404.7 450.832L1400.69 449.089C1397.51 447.725 1397.51 444.389 1400.69 443.025C1403.11 441.964 1406.14 441.964 1408.56 443.025H1408.63C1411.81 444.389 1411.81 447.8 1408.63 449.165Z" fill="#F4FFFF"></path><path d="M1321.98 498.358L1318.04 500.026L1314.03 498.282C1310.85 496.918 1310.85 493.583 1314.03 492.218C1316.45 491.157 1319.48 491.157 1321.9 492.218H1321.98C1325.15 493.583 1325.15 496.994 1321.98 498.358Z" fill="#F4FFFF"></path><path d="M1351.49 482.213L1347.56 483.881L1343.55 482.137C1340.37 480.773 1340.37 477.438 1343.55 476.073C1345.97 475.012 1349 475.012 1351.42 476.073H1351.49C1354.67 477.438 1354.67 480.849 1351.49 482.213Z" fill="#F4FFFF"></path><path d="M1263.79 531.538L1259.86 533.206L1255.85 531.462C1252.67 530.098 1252.67 526.763 1255.85 525.399C1258.27 524.337 1261.3 524.337 1263.72 525.399H1263.79C1266.97 526.763 1266.97 530.174 1263.79 531.538Z" fill="#F4FFFF"></path><path d="M1293.31 515.393L1289.38 517.061L1285.37 515.317C1282.19 513.953 1282.19 510.618 1285.37 509.254C1287.79 508.192 1290.82 508.192 1293.24 509.254H1293.31C1296.49 510.618 1296.49 514.029 1293.31 515.393Z" fill="#F4FFFF"></path><path d="M1205.16 565.292L1201.23 566.959L1197.22 565.216C1194.04 563.851 1194.04 560.516 1197.22 559.152C1199.64 558.091 1202.67 558.091 1205.09 559.152H1205.16C1208.34 560.516 1208.34 563.927 1205.16 565.292Z" fill="#F4FFFF"></path><path d="M1234.68 549.147L1230.75 550.814L1226.74 549.071C1223.56 547.706 1223.56 544.371 1226.74 543.007C1229.16 541.946 1232.19 541.946 1234.61 543.007H1234.68C1237.86 544.371 1237.86 547.782 1234.68 549.147Z" fill="#F4FFFF"></path><path d="M1151 596.096L1147.06 597.763L1143.05 596.02C1139.87 594.656 1139.87 591.32 1143.05 589.956C1145.47 588.895 1148.5 588.895 1150.92 589.956H1151C1154.18 591.32 1154.18 594.731 1151 596.096Z" fill="#F4FFFF"></path><path d="M1180.52 579.951L1176.58 581.618L1172.57 579.875C1169.39 578.511 1169.39 575.175 1172.57 573.811C1174.99 572.75 1178.02 572.75 1180.44 573.811H1180.52C1183.7 575.175 1183.7 578.586 1180.52 579.951Z" fill="#F4FFFF"></path><path d="M1093.86 629.144L1089.92 630.812L1085.91 629.068C1082.73 627.704 1082.73 624.369 1085.91 623.004C1088.33 621.943 1091.36 621.943 1093.78 623.004H1093.86C1097.04 624.369 1097.04 627.78 1093.86 629.144Z" fill="#F4FFFF"></path><path d="M1123.38 612.999L1119.44 614.667L1115.43 612.923C1112.25 611.559 1112.25 608.224 1115.43 606.859C1117.85 605.798 1120.88 605.798 1123.3 606.859H1123.38C1126.56 608.224 1126.56 611.635 1123.38 612.999Z" fill="#F4FFFF"></path><path d="M1035.68 662.324L1031.74 663.992L1027.73 662.248C1024.55 660.884 1024.55 657.549 1027.73 656.184C1030.15 655.123 1033.18 655.123 1035.6 656.184H1035.68C1038.86 657.549 1038.86 660.96 1035.68 662.324Z" fill="#F4FFFF"></path><path d="M1065.2 646.179L1061.26 647.847L1057.25 646.103C1054.07 644.739 1054.07 641.404 1057.25 640.039C1059.67 638.978 1062.7 638.978 1065.12 640.039H1065.2C1068.37 641.404 1068.37 644.815 1065.2 646.179Z" fill="#F4FFFF"></path><path d="M1382.27 556.831C1372.66 556.831 1361.23 558.877 1349.27 565.472L1349.65 566.154C1381.29 548.72 1408.99 563.274 1409.29 563.425C1409.6 563.577 1485.47 610.603 1523.01 631.296C1534.36 637.587 1539.96 644.03 1539.66 650.549C1539.21 661.161 1523.24 668.362 1523.09 668.438C1522.78 668.589 1492.51 684.962 1457.54 706.338C1446.64 713.008 1441.26 719.906 1441.64 726.879C1442.25 737.946 1456.93 744.995 1457.54 745.299L1546.4 796.918C1546.4 796.918 1558.58 804.801 1576.6 796.918L1796.04 677.018V676.262L1576.3 796.312C1558.66 803.968 1546.93 796.388 1546.85 796.312L1457.99 744.692C1457.99 744.692 1443.08 737.491 1442.47 726.879C1442.1 720.209 1447.32 713.539 1457.99 707.096C1492.88 685.796 1523.16 669.423 1523.46 669.272C1524.14 668.968 1540.04 661.767 1540.49 650.701C1540.8 643.879 1535.04 637.132 1523.46 630.689C1486 609.92 1410.12 562.97 1409.75 562.819C1409.6 562.743 1398.47 556.831 1382.27 556.831Z" fill="#F4FFFF"></path><path d="M1075.91 698.692L987.052 647.072L987.506 646.466L1076.37 698.085C1076.44 698.161 1088.18 705.741 1105.81 698.085L1349.34 565.437L1349.71 566.119L1106.11 698.692C1088.1 706.575 1075.91 698.692 1075.91 698.692Z" fill="#FBFFFF"></path><path d="M1044.89 740.151L956.029 688.532L956.483 687.925L1045.34 739.545C1045.42 739.621 1057.15 747.201 1074.79 739.545L1318.31 606.897L1318.69 607.579L1075.09 740.151C1057.08 748.035 1044.89 740.151 1044.89 740.151Z" fill="#112960"></path><path fill-rule="evenodd" clip-rule="evenodd" d="M955.454 688.649L956.379 687.414L1045.58 739.233L1045.6 739.245C1045.6 739.246 1045.6 739.246 1045.6 739.247C1045.62 739.261 1045.65 739.282 1045.7 739.309C1045.79 739.363 1045.92 739.442 1046.1 739.539C1046.45 739.733 1046.97 740 1047.65 740.296C1049.01 740.887 1051.01 741.593 1053.55 742.061C1058.63 742.995 1065.88 742.982 1074.62 739.194L1318.46 606.369L1319.22 607.734L1075.26 740.502L1075.25 740.509C1066.16 744.485 1058.53 744.489 1053.16 743.491C1050.48 742.992 1048.37 742.244 1046.92 741.618C1046.2 741.305 1045.64 741.023 1045.26 740.817C1045.07 740.715 1044.93 740.631 1044.83 740.573C1044.78 740.544 1044.75 740.521 1044.72 740.505L1044.69 740.489L1044.69 740.486L1044.68 740.481L1044.68 740.48L955.454 688.649ZM1074.79 739.545C1057.15 747.201 1045.42 739.621 1045.34 739.545L956.483 687.925L956.029 688.532L1044.89 740.151C1044.89 740.151 1057.08 748.035 1075.09 740.151L1318.69 607.579L1318.31 606.897L1074.79 739.545Z" fill="#112960"></path><path d="M1352.31 596.638C1343.68 596.638 1332.1 598.836 1318.1 606.568L1318.85 607.932C1335.28 598.912 1348.15 597.775 1356.09 598.381C1364.65 599.064 1369.49 601.944 1369.49 602.02C1369.57 602.02 1375.17 605.279 1390.31 613.617C1401.51 619.833 1407.03 626.2 1406.73 632.491C1406.28 642.8 1390.53 649.925 1390.38 650.001C1390 650.153 1359.8 666.525 1324.83 687.901C1313.78 694.647 1308.41 701.696 1308.79 708.746C1309.39 720.04 1324.3 727.241 1324.91 727.544L1749.65 983.566H1752.49L1325.67 726.255C1325.67 726.255 1310.91 719.13 1310.38 708.746C1310 702.227 1315.22 695.708 1325.67 689.265C1360.56 667.965 1390.84 651.593 1391.14 651.441C1391.74 651.138 1407.87 643.861 1408.4 632.567C1408.7 625.594 1402.87 618.696 1391.14 612.253C1376.08 603.915 1370.4 600.655 1370.4 600.655C1369.95 600.352 1363.59 596.638 1352.31 596.638Z" fill="#112960"></path><path fill-rule="evenodd" clip-rule="evenodd" d="M1790.83 0.00695801C1759.29 16.3027 1675.67 60.0114 1626.55 88.3367C1602.44 102.236 1596.67 114.56 1597.03 123.23C1597.41 132.241 1604.45 139.946 1611.64 144.319C1617.52 147.77 1637.97 159.873 1673.17 180.903C1682.42 186.429 1688.46 192.36 1691.77 198.596C1695.14 204.943 1695.5 211.276 1693.93 217.08C1690.92 228.279 1680.93 237.107 1673.2 241.819L1673.12 241.87L1673.04 241.916C1547.59 311.247 1290.4 453.74 1264.12 469.643C1247.78 479.529 1234.42 487.116 1221.22 489.254C1207.53 491.471 1194.58 487.802 1179.11 476.961C1168.36 469.427 1156.3 467.784 1145.34 468.918C1134.32 470.057 1124.73 473.981 1119.42 477.143L1119.34 477.188L995.161 544.546C995.151 544.552 995.142 544.557 995.132 544.563C956.824 566.074 930.555 576.343 907.492 577.153C884.198 577.972 864.878 569.12 840.687 554.447C818.142 540.772 763.232 507.32 723.967 482.918C705.555 471.475 685.156 470.201 666.847 473.448C648.493 476.703 632.602 484.448 623.719 490.491L623.562 490.598L148.194 758.416L148.147 758.441C136.034 764.892 129.745 773.147 129.641 780.849C129.539 788.373 135.348 798.113 154.115 807.63C164.281 812.786 171.023 818.739 174.867 825.232C178.761 831.811 179.473 838.6 178.171 844.891C175.641 857.108 165.622 867.23 157.313 871.914L157.266 871.94L0.956792 955.307L0.957031 945.473L152.938 864.048C159.736 860.2 167.514 851.97 169.358 843.066C170.244 838.786 169.782 834.311 167.122 829.817C164.411 825.238 159.215 820.308 150.044 815.657C130.328 805.658 120.468 793.545 120.642 780.728C120.812 768.105 130.717 757.54 143.869 750.522L618.816 482.942C628.658 476.283 645.645 468.067 665.275 464.586C685.058 461.078 707.885 462.327 728.718 475.274C767.94 499.65 822.818 533.082 845.355 546.752C869.242 561.241 886.643 568.88 907.176 568.159C927.932 567.43 952.585 558.134 990.754 536.699L990.783 536.683L1114.9 469.362C1121.24 465.605 1132.03 461.246 1144.41 459.966C1156.9 458.674 1171.3 460.496 1184.28 469.591C1198.47 479.536 1209.08 482.103 1219.78 480.37C1230.96 478.559 1242.82 472.011 1259.46 461.943C1285.94 445.922 1543.28 303.348 1668.6 234.087C1675.54 229.832 1683.12 222.61 1685.24 214.74C1686.25 210.994 1686.05 207.021 1683.82 202.815C1681.53 198.5 1676.93 193.634 1668.55 188.629C1633.3 167.567 1612.86 155.472 1607.05 152.062L1607.03 152.046L1607 152.029C1598.68 146.976 1588.61 137.008 1588.04 123.608C1587.46 109.857 1596.94 95.0209 1622.05 80.5399C1671.37 52.1055 1739.34 16.3139 1770.9 0.00710034L1790.83 0.00695801Z" fill="#00E2A2"></path></svg>